%TF.GenerationSoftware,KiCad,Pcbnew,9.0.2*%
%TF.CreationDate,2025-07-14T20:44:15+08:00*%
%TF.ProjectId,Dimple_pcb,44696d70-6c65-45f7-9063-622e6b696361,rev?*%
%TF.SameCoordinates,Original*%
%TF.FileFunction,Soldermask,Bot*%
%TF.FilePolarity,Negative*%
%FSLAX46Y46*%
G04 Gerber Fmt 4.6, Leading zero omitted, Abs format (unit mm)*
G04 Created by KiCad (PCBNEW 9.0.2) date 2025-07-14 20:44:15*
%MOMM*%
%LPD*%
G01*
G04 APERTURE LIST*
G04 Aperture macros list*
%AMRoundRect*
0 Rectangle with rounded corners*
0 $1 Rounding radius*
0 $2 $3 $4 $5 $6 $7 $8 $9 X,Y pos of 4 corners*
0 Add a 4 corners polygon primitive as box body*
4,1,4,$2,$3,$4,$5,$6,$7,$8,$9,$2,$3,0*
0 Add four circle primitives for the rounded corners*
1,1,$1+$1,$2,$3*
1,1,$1+$1,$4,$5*
1,1,$1+$1,$6,$7*
1,1,$1+$1,$8,$9*
0 Add four rect primitives between the rounded corners*
20,1,$1+$1,$2,$3,$4,$5,0*
20,1,$1+$1,$4,$5,$6,$7,0*
20,1,$1+$1,$6,$7,$8,$9,0*
20,1,$1+$1,$8,$9,$2,$3,0*%
%AMRotRect*
0 Rectangle, with rotation*
0 The origin of the aperture is its center*
0 $1 length*
0 $2 width*
0 $3 Rotation angle, in degrees counterclockwise*
0 Add horizontal line*
21,1,$1,$2,0,0,$3*%
G04 Aperture macros list end*
%ADD10R,1.800000X1.800000*%
%ADD11C,1.800000*%
%ADD12C,1.550000*%
%ADD13C,3.000000*%
%ADD14C,4.500000*%
%ADD15RotRect,2.550000X2.500000X6.000000*%
%ADD16RotRect,2.550000X2.500000X354.000000*%
%ADD17R,1.000000X1.250000*%
%ADD18RoundRect,0.225000X-0.225000X-0.250000X0.225000X-0.250000X0.225000X0.250000X-0.225000X0.250000X0*%
%ADD19RoundRect,0.075000X0.075000X-0.662500X0.075000X0.662500X-0.075000X0.662500X-0.075000X-0.662500X0*%
%ADD20RoundRect,0.075000X0.662500X-0.075000X0.662500X0.075000X-0.662500X0.075000X-0.662500X-0.075000X0*%
%ADD21R,1.100000X1.800000*%
%ADD22RoundRect,0.225000X0.250000X-0.225000X0.250000X0.225000X-0.250000X0.225000X-0.250000X-0.225000X0*%
%ADD23RoundRect,0.150000X0.587500X0.150000X-0.587500X0.150000X-0.587500X-0.150000X0.587500X-0.150000X0*%
%ADD24RoundRect,0.250000X-0.450000X0.262500X-0.450000X-0.262500X0.450000X-0.262500X0.450000X0.262500X0*%
%ADD25C,0.650000*%
%ADD26R,0.600000X1.450000*%
%ADD27R,0.300000X1.450000*%
%ADD28R,0.700000X1.000000*%
%ADD29R,0.700000X0.600000*%
%ADD30RoundRect,0.243750X0.456250X-0.243750X0.456250X0.243750X-0.456250X0.243750X-0.456250X-0.243750X0*%
%ADD31RoundRect,0.250000X0.450000X-0.262500X0.450000X0.262500X-0.450000X0.262500X-0.450000X-0.262500X0*%
G04 APERTURE END LIST*
D10*
X164706784Y-164693422D03*
D11*
X162166784Y-164693422D03*
D12*
X216917499Y-97888719D03*
D13*
X213860409Y-93102050D03*
D14*
X211865328Y-98419724D03*
D13*
X207810697Y-96291892D03*
D12*
X206813157Y-98950729D03*
D15*
X204553638Y-96634223D03*
X217144320Y-92756896D03*
D12*
X152937499Y-139840729D03*
D13*
X150942418Y-134523055D03*
D14*
X147885328Y-139309724D03*
D13*
X144361702Y-136385385D03*
D12*
X142833157Y-138778719D03*
D16*
X141104643Y-136043054D03*
X154226330Y-134868208D03*
D12*
X192487499Y-138778719D03*
D13*
X189430409Y-133992050D03*
D14*
X187435328Y-139309724D03*
D13*
X183380697Y-137181892D03*
D12*
X182383157Y-139840729D03*
D15*
X180123638Y-137524223D03*
X192714320Y-133646896D03*
D17*
X154166784Y-146168422D03*
X154166784Y-143218422D03*
D18*
X173366784Y-112543422D03*
X174916784Y-112543422D03*
D12*
X128517499Y-98950729D03*
D13*
X126522418Y-93633055D03*
D14*
X123465328Y-98419724D03*
D13*
X119941702Y-95495385D03*
D12*
X118413157Y-97888719D03*
D16*
X116684643Y-95153054D03*
X129806330Y-93978208D03*
D17*
X78666784Y-138168422D03*
X78666784Y-135218422D03*
X110666784Y-103168422D03*
X110666784Y-100218422D03*
D12*
X201587499Y-156968719D03*
D13*
X198530409Y-152182050D03*
D14*
X196535328Y-157499724D03*
D13*
X192480697Y-155371892D03*
D12*
X191483157Y-158030729D03*
D15*
X189223638Y-155714223D03*
X201814320Y-151836896D03*
D17*
X270666784Y-136668422D03*
X270666784Y-133718422D03*
D12*
X227647499Y-154228719D03*
D13*
X224590409Y-149442050D03*
D14*
X222595328Y-154759724D03*
D13*
X218540697Y-152631892D03*
D12*
X217543157Y-155290729D03*
D15*
X215283638Y-152974223D03*
X227874320Y-149096896D03*
D17*
X235166784Y-121168422D03*
X235166784Y-118218422D03*
D12*
X195247499Y-119328719D03*
D13*
X192190409Y-114542050D03*
D14*
X190195328Y-119859724D03*
D13*
X186140697Y-117731892D03*
D12*
X185143157Y-120390729D03*
D15*
X182883638Y-118074223D03*
X195474320Y-114196896D03*
D19*
X170416784Y-125355922D03*
X169916784Y-125355922D03*
X169416784Y-125355922D03*
X168916783Y-125355922D03*
X168416784Y-125355922D03*
X167916784Y-125355922D03*
X167416784Y-125355922D03*
X166916784Y-125355922D03*
X166416785Y-125355922D03*
X165916784Y-125355922D03*
X165416784Y-125355922D03*
X164916784Y-125355922D03*
D20*
X163504284Y-123943422D03*
X163504284Y-123443422D03*
X163504284Y-122943422D03*
X163504284Y-122443421D03*
X163504284Y-121943422D03*
X163504284Y-121443422D03*
X163504284Y-120943422D03*
X163504284Y-120443422D03*
X163504284Y-119943423D03*
X163504284Y-119443422D03*
X163504284Y-118943422D03*
X163504284Y-118443422D03*
D19*
X164916784Y-117030922D03*
X165416784Y-117030922D03*
X165916784Y-117030922D03*
X166416785Y-117030922D03*
X166916784Y-117030922D03*
X167416784Y-117030922D03*
X167916784Y-117030922D03*
X168416784Y-117030922D03*
X168916783Y-117030922D03*
X169416784Y-117030922D03*
X169916784Y-117030922D03*
X170416784Y-117030922D03*
D20*
X171829284Y-118443422D03*
X171829284Y-118943422D03*
X171829284Y-119443422D03*
X171829284Y-119943423D03*
X171829284Y-120443422D03*
X171829284Y-120943422D03*
X171829284Y-121443422D03*
X171829284Y-121943422D03*
X171829284Y-122443421D03*
X171829284Y-122943422D03*
X171829284Y-123443422D03*
X171829284Y-123943422D03*
D21*
X171516784Y-165793422D03*
X167816784Y-159593422D03*
X167816784Y-165793422D03*
X171516784Y-159593422D03*
D17*
X238166784Y-101668422D03*
X238166784Y-98718422D03*
D12*
X235877499Y-95898719D03*
D13*
X232820409Y-91112050D03*
D14*
X230825328Y-96429724D03*
D13*
X226770697Y-94301892D03*
D12*
X225773157Y-96960729D03*
D15*
X223513638Y-94644223D03*
X236104320Y-90766896D03*
D12*
X246572499Y-152246769D03*
D13*
X243515409Y-147460100D03*
D14*
X241520328Y-152777774D03*
D13*
X237465697Y-150649942D03*
D12*
X236468157Y-153308779D03*
D15*
X234208638Y-150992273D03*
X246799320Y-147114946D03*
D17*
X232666784Y-140668422D03*
X232666784Y-137718422D03*
D22*
X162666784Y-160968422D03*
X162666784Y-159418422D03*
D17*
X75666784Y-118668422D03*
X75666784Y-115718422D03*
X251666784Y-138668422D03*
X251666784Y-135718422D03*
D12*
X233127499Y-115358719D03*
D13*
X230070409Y-110572050D03*
D14*
X228075328Y-115889724D03*
D13*
X224020697Y-113761892D03*
D12*
X223023157Y-116420729D03*
D15*
X220763638Y-114104223D03*
X233354320Y-110226896D03*
D12*
X117797499Y-155290729D03*
D13*
X115802418Y-149973055D03*
D14*
X112745328Y-154759724D03*
D13*
X109221702Y-151835385D03*
D12*
X107693157Y-154228719D03*
D16*
X105964643Y-151493054D03*
X119086330Y-150318208D03*
D12*
X214197499Y-117338719D03*
D13*
X211140409Y-112552050D03*
D14*
X209145328Y-117869724D03*
D13*
X205090697Y-115741892D03*
D12*
X204093157Y-118400729D03*
D15*
X201833638Y-116084223D03*
X214424320Y-112206896D03*
D23*
X172904284Y-101443422D03*
X172904284Y-103343422D03*
X171029284Y-102393422D03*
D12*
X98867499Y-153290729D03*
D13*
X96872418Y-147973055D03*
D14*
X93815328Y-152759724D03*
D13*
X90291702Y-149835385D03*
D12*
X88763157Y-152228719D03*
D16*
X87034643Y-149493054D03*
X100156330Y-148318208D03*
D17*
X213666784Y-142668422D03*
X213666784Y-139718422D03*
D18*
X173366784Y-107780922D03*
X174916784Y-107780922D03*
D17*
X197657515Y-125168422D03*
X197657515Y-122218422D03*
X145166784Y-164168422D03*
X145166784Y-161218422D03*
X249166784Y-158168422D03*
X249166784Y-155218422D03*
X204166784Y-162668422D03*
X204166784Y-159718422D03*
D24*
X161666784Y-95780922D03*
X161666784Y-97605922D03*
D17*
X230166784Y-160168422D03*
X230166784Y-157218422D03*
X132666784Y-124668422D03*
X132666784Y-121718422D03*
D12*
X271027499Y-111378719D03*
D13*
X267970409Y-106592050D03*
D14*
X265975328Y-111909724D03*
D13*
X261920697Y-109781892D03*
D12*
X260923157Y-112440729D03*
D15*
X258663638Y-110124223D03*
X271254320Y-106246896D03*
D25*
X164776784Y-90858422D03*
X170556784Y-90858422D03*
D26*
X164441784Y-92303422D03*
X165216784Y-92303422D03*
D27*
X165916784Y-92303422D03*
X166416784Y-92303422D03*
X166916784Y-92303422D03*
X167416784Y-92303422D03*
X167916784Y-92303422D03*
X168416784Y-92303422D03*
X168916784Y-92303422D03*
X169416784Y-92303422D03*
D26*
X170116784Y-92303422D03*
X170891784Y-92303422D03*
D17*
X116166784Y-142168422D03*
X116166784Y-139218422D03*
D18*
X173348034Y-114130922D03*
X174898034Y-114130922D03*
D12*
X273747499Y-91928719D03*
D13*
X270690409Y-87142050D03*
D14*
X268695328Y-92459724D03*
D13*
X264640697Y-90331892D03*
D12*
X263643157Y-92990729D03*
D15*
X261383638Y-90674223D03*
X273974320Y-86796896D03*
D12*
X77157499Y-131860729D03*
D13*
X75162418Y-126543055D03*
D14*
X72105328Y-131329724D03*
D13*
X68581702Y-128405385D03*
D12*
X67053157Y-130798719D03*
D16*
X65324643Y-128063054D03*
X78446330Y-126888208D03*
D17*
X200166784Y-105668422D03*
X200166784Y-102718422D03*
X113666784Y-122668422D03*
X113666784Y-119718422D03*
D12*
X90627499Y-94970729D03*
D13*
X88632418Y-89653055D03*
D14*
X85575328Y-94439724D03*
D13*
X82051702Y-91515385D03*
D12*
X80523157Y-93908719D03*
D16*
X78794643Y-91173054D03*
X91916330Y-89998208D03*
D28*
X168666784Y-97443422D03*
D29*
X168666784Y-99143422D03*
X166666784Y-99143422D03*
X166666784Y-97243422D03*
D12*
X211437499Y-136788719D03*
D13*
X208380409Y-132002050D03*
D14*
X206385328Y-137319724D03*
D13*
X202330697Y-135191892D03*
D12*
X201333157Y-137850729D03*
D15*
X199073638Y-135534223D03*
X211664320Y-131656896D03*
D17*
X94666784Y-120668422D03*
X94666784Y-117718422D03*
X216166784Y-123168422D03*
X216166784Y-120218422D03*
X151166784Y-126668422D03*
X151166784Y-123718422D03*
X135166784Y-144168422D03*
X135166784Y-141218422D03*
X257166784Y-99668422D03*
X257166784Y-96718422D03*
D18*
X173366784Y-106193422D03*
X174916784Y-106193422D03*
X173366784Y-109368422D03*
X174916784Y-109368422D03*
D12*
X133997499Y-137850729D03*
D13*
X132002418Y-132533055D03*
D14*
X128945328Y-137319724D03*
D13*
X125421702Y-134395385D03*
D12*
X123893157Y-136788719D03*
D16*
X122164643Y-134053054D03*
X135286330Y-132878208D03*
D12*
X150207499Y-120390729D03*
D13*
X148212418Y-115073055D03*
D14*
X145155328Y-119859724D03*
D13*
X141631702Y-116935385D03*
D12*
X140103157Y-119328719D03*
D16*
X138374643Y-116593054D03*
X151496330Y-115418208D03*
D17*
X254166784Y-119168422D03*
X254166784Y-116218422D03*
D30*
X170566784Y-99330922D03*
X170566784Y-97455922D03*
D12*
X93367499Y-114410729D03*
D13*
X91372418Y-109093055D03*
D14*
X88315328Y-113879724D03*
D13*
X84791702Y-110955385D03*
D12*
X83263157Y-113348719D03*
D16*
X81534643Y-110613054D03*
X94656330Y-109438208D03*
D12*
X230397499Y-134798719D03*
D13*
X227340409Y-130012050D03*
D14*
X225345328Y-135329724D03*
D13*
X221290697Y-133201892D03*
D12*
X220293157Y-135860729D03*
D15*
X218033638Y-133544223D03*
X230624320Y-129666896D03*
D12*
X197967499Y-99878719D03*
D13*
X194910409Y-95092050D03*
D14*
X192915328Y-100409724D03*
D13*
X188860697Y-98281892D03*
D12*
X187863157Y-100940729D03*
D15*
X185603638Y-98624223D03*
X198194320Y-94746896D03*
D12*
X131257499Y-118400729D03*
D13*
X129262418Y-113083055D03*
D14*
X126205328Y-117869724D03*
D13*
X122681702Y-114945385D03*
D12*
X121153157Y-117338719D03*
D16*
X119424643Y-114603054D03*
X132546330Y-113428208D03*
D17*
X119166784Y-161668422D03*
X119166784Y-158718422D03*
D22*
X174866784Y-103068422D03*
X174866784Y-101518422D03*
D18*
X172691784Y-99693422D03*
X174241784Y-99693422D03*
D17*
X275666784Y-97668422D03*
X275666784Y-94718422D03*
D24*
X165166784Y-159280922D03*
X165166784Y-161105922D03*
D12*
X252077499Y-113368719D03*
D13*
X249020409Y-108582050D03*
D14*
X247025328Y-113899724D03*
D13*
X242970697Y-111771892D03*
D12*
X241973157Y-114430729D03*
D15*
X239713638Y-112114223D03*
X252304320Y-108236896D03*
D12*
X96107499Y-133850729D03*
D13*
X94112418Y-128533055D03*
D14*
X91055328Y-133319724D03*
D13*
X87531702Y-130395385D03*
D12*
X86003157Y-132788719D03*
D16*
X84274643Y-130053054D03*
X97396330Y-128878208D03*
D12*
X109567499Y-96960729D03*
D13*
X107572418Y-91643055D03*
D14*
X104515328Y-96429724D03*
D13*
X100991702Y-93505385D03*
D12*
X99463157Y-95898719D03*
D16*
X97734643Y-93163054D03*
X110856330Y-91988208D03*
D18*
X173366784Y-110955922D03*
X174916784Y-110955922D03*
D12*
X254817499Y-93918719D03*
D13*
X251760409Y-89132050D03*
D14*
X249765328Y-94449724D03*
D13*
X245710697Y-92321892D03*
D12*
X244713157Y-94980729D03*
D15*
X242453638Y-92664223D03*
X255044320Y-88786896D03*
D17*
X72666784Y-99168422D03*
X72666784Y-96218422D03*
X148666784Y-107168422D03*
X148666784Y-104218422D03*
X129666784Y-105168422D03*
X129666784Y-102218422D03*
X100166784Y-159668422D03*
X100166784Y-156718422D03*
D12*
X112307499Y-116400729D03*
D13*
X110312418Y-111083055D03*
D14*
X107255328Y-115869724D03*
D13*
X103731702Y-112945385D03*
D12*
X102203157Y-115338719D03*
D16*
X100474643Y-112603054D03*
X113596330Y-111428208D03*
D12*
X268277499Y-130818719D03*
D13*
X265220409Y-126032050D03*
D14*
X263225328Y-131349724D03*
D13*
X259170697Y-129221892D03*
D12*
X258173157Y-131880729D03*
D15*
X255913638Y-129564223D03*
X268504320Y-125686896D03*
D17*
X91666784Y-101168422D03*
X91666784Y-98218422D03*
D12*
X74417499Y-112420729D03*
D13*
X72422418Y-107103055D03*
D14*
X69365328Y-111889724D03*
D13*
X65841702Y-108965385D03*
D12*
X64313157Y-111358719D03*
D16*
X62584643Y-108623054D03*
X75706330Y-107448208D03*
D31*
X173513812Y-97605922D03*
X173513812Y-95780922D03*
D12*
X249327499Y-132808719D03*
D13*
X246270409Y-128022050D03*
D14*
X244275328Y-133339724D03*
D13*
X240220697Y-131211892D03*
D12*
X239223157Y-133870729D03*
D15*
X236963638Y-131554223D03*
X249554320Y-127676896D03*
D17*
X219166784Y-103668422D03*
X219166784Y-100718422D03*
D12*
X147457499Y-100940729D03*
D13*
X145462418Y-95623055D03*
D14*
X142405328Y-100409724D03*
D13*
X138881702Y-97485385D03*
D12*
X137353157Y-99878719D03*
D16*
X135624643Y-97143054D03*
X148746330Y-95968208D03*
D17*
X273166784Y-117168422D03*
X273166784Y-114218422D03*
X194666784Y-144668422D03*
X194666784Y-141718422D03*
X97166784Y-140168422D03*
X97166784Y-137218422D03*
D12*
X71677499Y-92980729D03*
D13*
X69682418Y-87663055D03*
D14*
X66625328Y-92449724D03*
D13*
X63101702Y-89525385D03*
D12*
X61573157Y-91918719D03*
D16*
X59844643Y-89183054D03*
X72966330Y-88008208D03*
D12*
X115057499Y-135840729D03*
D13*
X113062418Y-130523055D03*
D14*
X110005328Y-135309724D03*
D13*
X106481702Y-132385385D03*
D12*
X104953157Y-134778719D03*
D16*
X103224643Y-132043054D03*
X116346330Y-130868208D03*
D12*
X143847499Y-158040729D03*
D13*
X141852418Y-152723055D03*
D14*
X138795328Y-157509724D03*
D13*
X135271702Y-154585385D03*
D12*
X133743157Y-156978719D03*
D16*
X132014643Y-154243054D03*
X145136330Y-153068208D03*
M02*
