%TF.GenerationSoftware,KiCad,Pcbnew,9.0.2*%
%TF.CreationDate,2025-07-14T20:44:15+08:00*%
%TF.ProjectId,Dimple_pcb,44696d70-6c65-45f7-9063-622e6b696361,rev?*%
%TF.SameCoordinates,Original*%
%TF.FileFunction,Legend,Bot*%
%TF.FilePolarity,Positive*%
%FSLAX46Y46*%
G04 Gerber Fmt 4.6, Leading zero omitted, Abs format (unit mm)*
G04 Created by KiCad (PCBNEW 9.0.2) date 2025-07-14 20:44:15*
%MOMM*%
%LPD*%
G01*
G04 APERTURE LIST*
%ADD10C,0.150000*%
%ADD11C,0.200000*%
%ADD12C,0.120000*%
G04 APERTURE END LIST*
D10*
X173536603Y-161530201D02*
X172536603Y-161530201D01*
X172917555Y-161530201D02*
X172869936Y-161625439D01*
X172869936Y-161625439D02*
X172869936Y-161815915D01*
X172869936Y-161815915D02*
X172917555Y-161911153D01*
X172917555Y-161911153D02*
X172965174Y-161958772D01*
X172965174Y-161958772D02*
X173060412Y-162006391D01*
X173060412Y-162006391D02*
X173346126Y-162006391D01*
X173346126Y-162006391D02*
X173441364Y-161958772D01*
X173441364Y-161958772D02*
X173488984Y-161911153D01*
X173488984Y-161911153D02*
X173536603Y-161815915D01*
X173536603Y-161815915D02*
X173536603Y-161625439D01*
X173536603Y-161625439D02*
X173488984Y-161530201D01*
X173536603Y-162577820D02*
X173488984Y-162482582D01*
X173488984Y-162482582D02*
X173441364Y-162434963D01*
X173441364Y-162434963D02*
X173346126Y-162387344D01*
X173346126Y-162387344D02*
X173060412Y-162387344D01*
X173060412Y-162387344D02*
X172965174Y-162434963D01*
X172965174Y-162434963D02*
X172917555Y-162482582D01*
X172917555Y-162482582D02*
X172869936Y-162577820D01*
X172869936Y-162577820D02*
X172869936Y-162720677D01*
X172869936Y-162720677D02*
X172917555Y-162815915D01*
X172917555Y-162815915D02*
X172965174Y-162863534D01*
X172965174Y-162863534D02*
X173060412Y-162911153D01*
X173060412Y-162911153D02*
X173346126Y-162911153D01*
X173346126Y-162911153D02*
X173441364Y-162863534D01*
X173441364Y-162863534D02*
X173488984Y-162815915D01*
X173488984Y-162815915D02*
X173536603Y-162720677D01*
X173536603Y-162720677D02*
X173536603Y-162577820D01*
X173536603Y-163482582D02*
X173488984Y-163387344D01*
X173488984Y-163387344D02*
X173441364Y-163339725D01*
X173441364Y-163339725D02*
X173346126Y-163292106D01*
X173346126Y-163292106D02*
X173060412Y-163292106D01*
X173060412Y-163292106D02*
X172965174Y-163339725D01*
X172965174Y-163339725D02*
X172917555Y-163387344D01*
X172917555Y-163387344D02*
X172869936Y-163482582D01*
X172869936Y-163482582D02*
X172869936Y-163625439D01*
X172869936Y-163625439D02*
X172917555Y-163720677D01*
X172917555Y-163720677D02*
X172965174Y-163768296D01*
X172965174Y-163768296D02*
X173060412Y-163815915D01*
X173060412Y-163815915D02*
X173346126Y-163815915D01*
X173346126Y-163815915D02*
X173441364Y-163768296D01*
X173441364Y-163768296D02*
X173488984Y-163720677D01*
X173488984Y-163720677D02*
X173536603Y-163625439D01*
X173536603Y-163625439D02*
X173536603Y-163482582D01*
X172869936Y-164101630D02*
X172869936Y-164482582D01*
X172536603Y-164244487D02*
X173393745Y-164244487D01*
X173393745Y-164244487D02*
X173488984Y-164292106D01*
X173488984Y-164292106D02*
X173536603Y-164387344D01*
X173536603Y-164387344D02*
X173536603Y-164482582D01*
X165055831Y-167148241D02*
X165055831Y-166481574D01*
X165055831Y-166672050D02*
X165008212Y-166576812D01*
X165008212Y-166576812D02*
X164960593Y-166529193D01*
X164960593Y-166529193D02*
X164865355Y-166481574D01*
X164865355Y-166481574D02*
X164770117Y-166481574D01*
X164055831Y-167100622D02*
X164151069Y-167148241D01*
X164151069Y-167148241D02*
X164341545Y-167148241D01*
X164341545Y-167148241D02*
X164436783Y-167100622D01*
X164436783Y-167100622D02*
X164484402Y-167005383D01*
X164484402Y-167005383D02*
X164484402Y-166624431D01*
X164484402Y-166624431D02*
X164436783Y-166529193D01*
X164436783Y-166529193D02*
X164341545Y-166481574D01*
X164341545Y-166481574D02*
X164151069Y-166481574D01*
X164151069Y-166481574D02*
X164055831Y-166529193D01*
X164055831Y-166529193D02*
X164008212Y-166624431D01*
X164008212Y-166624431D02*
X164008212Y-166719669D01*
X164008212Y-166719669D02*
X164484402Y-166814907D01*
X163627259Y-167100622D02*
X163532021Y-167148241D01*
X163532021Y-167148241D02*
X163341545Y-167148241D01*
X163341545Y-167148241D02*
X163246307Y-167100622D01*
X163246307Y-167100622D02*
X163198688Y-167005383D01*
X163198688Y-167005383D02*
X163198688Y-166957764D01*
X163198688Y-166957764D02*
X163246307Y-166862526D01*
X163246307Y-166862526D02*
X163341545Y-166814907D01*
X163341545Y-166814907D02*
X163484402Y-166814907D01*
X163484402Y-166814907D02*
X163579640Y-166767288D01*
X163579640Y-166767288D02*
X163627259Y-166672050D01*
X163627259Y-166672050D02*
X163627259Y-166624431D01*
X163627259Y-166624431D02*
X163579640Y-166529193D01*
X163579640Y-166529193D02*
X163484402Y-166481574D01*
X163484402Y-166481574D02*
X163341545Y-166481574D01*
X163341545Y-166481574D02*
X163246307Y-166529193D01*
X162389164Y-167100622D02*
X162484402Y-167148241D01*
X162484402Y-167148241D02*
X162674878Y-167148241D01*
X162674878Y-167148241D02*
X162770116Y-167100622D01*
X162770116Y-167100622D02*
X162817735Y-167005383D01*
X162817735Y-167005383D02*
X162817735Y-166624431D01*
X162817735Y-166624431D02*
X162770116Y-166529193D01*
X162770116Y-166529193D02*
X162674878Y-166481574D01*
X162674878Y-166481574D02*
X162484402Y-166481574D01*
X162484402Y-166481574D02*
X162389164Y-166529193D01*
X162389164Y-166529193D02*
X162341545Y-166624431D01*
X162341545Y-166624431D02*
X162341545Y-166719669D01*
X162341545Y-166719669D02*
X162817735Y-166814907D01*
X162055830Y-166481574D02*
X161674878Y-166481574D01*
X161912973Y-166148241D02*
X161912973Y-167005383D01*
X161912973Y-167005383D02*
X161865354Y-167100622D01*
X161865354Y-167100622D02*
X161770116Y-167148241D01*
X161770116Y-167148241D02*
X161674878Y-167148241D01*
D11*
X153466784Y-144193422D02*
X153466784Y-145193422D01*
X154866784Y-144193422D02*
X153466784Y-144193422D01*
X154866784Y-144193422D02*
X154866784Y-145193422D01*
X154866784Y-144893422D02*
X153466784Y-144893422D01*
X154866784Y-145193422D02*
X153466784Y-145193422D01*
D12*
X174001204Y-112033422D02*
X174282364Y-112033422D01*
X174001204Y-113053422D02*
X174282364Y-113053422D01*
D11*
X77966784Y-136193422D02*
X77966784Y-137193422D01*
X79366784Y-136193422D02*
X77966784Y-136193422D01*
X79366784Y-136193422D02*
X79366784Y-137193422D01*
X79366784Y-136893422D02*
X77966784Y-136893422D01*
X79366784Y-137193422D02*
X77966784Y-137193422D01*
X109966784Y-101193422D02*
X109966784Y-102193422D01*
X111366784Y-101193422D02*
X109966784Y-101193422D01*
X111366784Y-101193422D02*
X111366784Y-102193422D01*
X111366784Y-101893422D02*
X109966784Y-101893422D01*
X111366784Y-102193422D02*
X109966784Y-102193422D01*
X269966784Y-134693422D02*
X269966784Y-135693422D01*
X271366784Y-134693422D02*
X269966784Y-134693422D01*
X271366784Y-134693422D02*
X271366784Y-135693422D01*
X271366784Y-135393422D02*
X269966784Y-135393422D01*
X271366784Y-135693422D02*
X269966784Y-135693422D01*
X234466784Y-119193422D02*
X234466784Y-120193422D01*
X235866784Y-119193422D02*
X234466784Y-119193422D01*
X235866784Y-119193422D02*
X235866784Y-120193422D01*
X235866784Y-119893422D02*
X234466784Y-119893422D01*
X235866784Y-120193422D02*
X234466784Y-120193422D01*
D12*
X164056784Y-117583422D02*
X164506784Y-117583422D01*
X164056784Y-118033422D02*
X164056784Y-117583422D01*
X164056784Y-124353422D02*
X164056784Y-124803422D01*
X164056784Y-124803422D02*
X164506784Y-124803422D01*
X170826784Y-124803422D02*
X170826784Y-126093422D01*
X171276784Y-117583422D02*
X170826784Y-117583422D01*
X171276784Y-118033422D02*
X171276784Y-117583422D01*
X171276784Y-124353422D02*
X171276784Y-124803422D01*
X171276784Y-124803422D02*
X170826784Y-124803422D01*
D10*
X167066784Y-160093422D02*
X167066784Y-165293422D01*
X167066784Y-165293422D02*
X172266784Y-165293422D01*
X172266784Y-160093422D02*
X167066784Y-160093422D01*
X172266784Y-165293422D02*
X172266784Y-160093422D01*
X170666784Y-162693422D02*
G75*
G02*
X168666784Y-162693422I-1000000J0D01*
G01*
X168666784Y-162693422D02*
G75*
G02*
X170666784Y-162693422I1000000J0D01*
G01*
D11*
X237466784Y-99693422D02*
X237466784Y-100693422D01*
X238866784Y-99693422D02*
X237466784Y-99693422D01*
X238866784Y-99693422D02*
X238866784Y-100693422D01*
X238866784Y-100393422D02*
X237466784Y-100393422D01*
X238866784Y-100693422D02*
X237466784Y-100693422D01*
X231966784Y-138693422D02*
X231966784Y-139693422D01*
X233366784Y-138693422D02*
X231966784Y-138693422D01*
X233366784Y-138693422D02*
X233366784Y-139693422D01*
X233366784Y-139393422D02*
X231966784Y-139393422D01*
X233366784Y-139693422D02*
X231966784Y-139693422D01*
D12*
X162156784Y-160334002D02*
X162156784Y-160052842D01*
X163176784Y-160334002D02*
X163176784Y-160052842D01*
D11*
X74966784Y-116693422D02*
X74966784Y-117693422D01*
X76366784Y-116693422D02*
X74966784Y-116693422D01*
X76366784Y-116693422D02*
X76366784Y-117693422D01*
X76366784Y-117393422D02*
X74966784Y-117393422D01*
X76366784Y-117693422D02*
X74966784Y-117693422D01*
X250966784Y-136693422D02*
X250966784Y-137693422D01*
X252366784Y-136693422D02*
X250966784Y-136693422D01*
X252366784Y-136693422D02*
X252366784Y-137693422D01*
X252366784Y-137393422D02*
X250966784Y-137393422D01*
X252366784Y-137693422D02*
X250966784Y-137693422D01*
D12*
X171966784Y-100833422D02*
X171316784Y-100833422D01*
X171966784Y-100833422D02*
X173641784Y-100833422D01*
X171966784Y-103953422D02*
X171316784Y-103953422D01*
X171966784Y-103953422D02*
X172616784Y-103953422D01*
D11*
X212966784Y-140693422D02*
X212966784Y-141693422D01*
X214366784Y-140693422D02*
X212966784Y-140693422D01*
X214366784Y-140693422D02*
X214366784Y-141693422D01*
X214366784Y-141393422D02*
X212966784Y-141393422D01*
X214366784Y-141693422D02*
X212966784Y-141693422D01*
D12*
X174001204Y-107270922D02*
X174282364Y-107270922D01*
X174001204Y-108290922D02*
X174282364Y-108290922D01*
D11*
X196957515Y-123193422D02*
X196957515Y-124193422D01*
X198357515Y-123193422D02*
X196957515Y-123193422D01*
X198357515Y-123193422D02*
X198357515Y-124193422D01*
X198357515Y-123893422D02*
X196957515Y-123893422D01*
X198357515Y-124193422D02*
X196957515Y-124193422D01*
X144466784Y-162193422D02*
X144466784Y-163193422D01*
X145866784Y-162193422D02*
X144466784Y-162193422D01*
X145866784Y-162193422D02*
X145866784Y-163193422D01*
X145866784Y-162893422D02*
X144466784Y-162893422D01*
X145866784Y-163193422D02*
X144466784Y-163193422D01*
X248466784Y-156193422D02*
X248466784Y-157193422D01*
X249866784Y-156193422D02*
X248466784Y-156193422D01*
X249866784Y-156193422D02*
X249866784Y-157193422D01*
X249866784Y-156893422D02*
X248466784Y-156893422D01*
X249866784Y-157193422D02*
X248466784Y-157193422D01*
X203466784Y-160693422D02*
X203466784Y-161693422D01*
X204866784Y-160693422D02*
X203466784Y-160693422D01*
X204866784Y-160693422D02*
X204866784Y-161693422D01*
X204866784Y-161393422D02*
X203466784Y-161393422D01*
X204866784Y-161693422D02*
X203466784Y-161693422D01*
D12*
X160931784Y-96466358D02*
X160931784Y-96920486D01*
X162401784Y-96466358D02*
X162401784Y-96920486D01*
D11*
X229466784Y-158193422D02*
X229466784Y-159193422D01*
X230866784Y-158193422D02*
X229466784Y-158193422D01*
X230866784Y-158193422D02*
X230866784Y-159193422D01*
X230866784Y-158893422D02*
X229466784Y-158893422D01*
X230866784Y-159193422D02*
X229466784Y-159193422D01*
X131966784Y-122693422D02*
X131966784Y-123693422D01*
X133366784Y-122693422D02*
X131966784Y-122693422D01*
X133366784Y-122693422D02*
X133366784Y-123693422D01*
X133366784Y-123393422D02*
X131966784Y-123393422D01*
X133366784Y-123693422D02*
X131966784Y-123693422D01*
X115466784Y-140193422D02*
X115466784Y-141193422D01*
X116866784Y-140193422D02*
X115466784Y-140193422D01*
X116866784Y-140193422D02*
X116866784Y-141193422D01*
X116866784Y-140893422D02*
X115466784Y-140893422D01*
X116866784Y-141193422D02*
X115466784Y-141193422D01*
D12*
X173982454Y-113620922D02*
X174263614Y-113620922D01*
X173982454Y-114640922D02*
X174263614Y-114640922D01*
D11*
X199466784Y-103693422D02*
X199466784Y-104693422D01*
X200866784Y-103693422D02*
X199466784Y-103693422D01*
X200866784Y-103693422D02*
X200866784Y-104693422D01*
X200866784Y-104393422D02*
X199466784Y-104393422D01*
X200866784Y-104693422D02*
X199466784Y-104693422D01*
X112966784Y-120693422D02*
X112966784Y-121693422D01*
X114366784Y-120693422D02*
X112966784Y-120693422D01*
X114366784Y-120693422D02*
X114366784Y-121693422D01*
X114366784Y-121393422D02*
X112966784Y-121393422D01*
X114366784Y-121693422D02*
X112966784Y-121693422D01*
D10*
X167016784Y-96743422D02*
X167016784Y-99643422D01*
X167016784Y-96743422D02*
X168316784Y-96743422D01*
X168316784Y-96743422D02*
X168316784Y-99643422D01*
X168316784Y-99643422D02*
X167016784Y-99643422D01*
D11*
X93966784Y-118693422D02*
X93966784Y-119693422D01*
X95366784Y-118693422D02*
X93966784Y-118693422D01*
X95366784Y-118693422D02*
X95366784Y-119693422D01*
X95366784Y-119393422D02*
X93966784Y-119393422D01*
X95366784Y-119693422D02*
X93966784Y-119693422D01*
X215466784Y-121193422D02*
X215466784Y-122193422D01*
X216866784Y-121193422D02*
X215466784Y-121193422D01*
X216866784Y-121193422D02*
X216866784Y-122193422D01*
X216866784Y-121893422D02*
X215466784Y-121893422D01*
X216866784Y-122193422D02*
X215466784Y-122193422D01*
X150466784Y-124693422D02*
X150466784Y-125693422D01*
X151866784Y-124693422D02*
X150466784Y-124693422D01*
X151866784Y-124693422D02*
X151866784Y-125693422D01*
X151866784Y-125393422D02*
X150466784Y-125393422D01*
X151866784Y-125693422D02*
X150466784Y-125693422D01*
X134466784Y-142193422D02*
X134466784Y-143193422D01*
X135866784Y-142193422D02*
X134466784Y-142193422D01*
X135866784Y-142193422D02*
X135866784Y-143193422D01*
X135866784Y-142893422D02*
X134466784Y-142893422D01*
X135866784Y-143193422D02*
X134466784Y-143193422D01*
X256466784Y-97693422D02*
X256466784Y-98693422D01*
X257866784Y-97693422D02*
X256466784Y-97693422D01*
X257866784Y-97693422D02*
X257866784Y-98693422D01*
X257866784Y-98393422D02*
X256466784Y-98393422D01*
X257866784Y-98693422D02*
X256466784Y-98693422D01*
D12*
X174001204Y-105683422D02*
X174282364Y-105683422D01*
X174001204Y-106703422D02*
X174282364Y-106703422D01*
X174001204Y-108858422D02*
X174282364Y-108858422D01*
X174001204Y-109878422D02*
X174282364Y-109878422D01*
D11*
X253466784Y-117193422D02*
X253466784Y-118193422D01*
X254866784Y-117193422D02*
X253466784Y-117193422D01*
X254866784Y-117193422D02*
X254866784Y-118193422D01*
X254866784Y-117893422D02*
X253466784Y-117893422D01*
X254866784Y-118193422D02*
X253466784Y-118193422D01*
D12*
X169856784Y-98652000D02*
X169856784Y-98134844D01*
X171276784Y-98652000D02*
X171276784Y-98134844D01*
D11*
X118466784Y-159693422D02*
X118466784Y-160693422D01*
X119866784Y-159693422D02*
X118466784Y-159693422D01*
X119866784Y-159693422D02*
X119866784Y-160693422D01*
X119866784Y-160393422D02*
X118466784Y-160393422D01*
X119866784Y-160693422D02*
X118466784Y-160693422D01*
D12*
X174356784Y-102434002D02*
X174356784Y-102152842D01*
X175376784Y-102434002D02*
X175376784Y-102152842D01*
X173326204Y-99183422D02*
X173607364Y-99183422D01*
X173326204Y-100203422D02*
X173607364Y-100203422D01*
D11*
X274966784Y-95693422D02*
X274966784Y-96693422D01*
X276366784Y-95693422D02*
X274966784Y-95693422D01*
X276366784Y-95693422D02*
X276366784Y-96693422D01*
X276366784Y-96393422D02*
X274966784Y-96393422D01*
X276366784Y-96693422D02*
X274966784Y-96693422D01*
D12*
X164431784Y-159966358D02*
X164431784Y-160420486D01*
X165901784Y-159966358D02*
X165901784Y-160420486D01*
X174001204Y-110445922D02*
X174282364Y-110445922D01*
X174001204Y-111465922D02*
X174282364Y-111465922D01*
D11*
X71966784Y-97193422D02*
X71966784Y-98193422D01*
X73366784Y-97193422D02*
X71966784Y-97193422D01*
X73366784Y-97193422D02*
X73366784Y-98193422D01*
X73366784Y-97893422D02*
X71966784Y-97893422D01*
X73366784Y-98193422D02*
X71966784Y-98193422D01*
X147966784Y-105193422D02*
X147966784Y-106193422D01*
X149366784Y-105193422D02*
X147966784Y-105193422D01*
X149366784Y-105193422D02*
X149366784Y-106193422D01*
X149366784Y-105893422D02*
X147966784Y-105893422D01*
X149366784Y-106193422D02*
X147966784Y-106193422D01*
X128966784Y-103193422D02*
X128966784Y-104193422D01*
X130366784Y-103193422D02*
X128966784Y-103193422D01*
X130366784Y-103193422D02*
X130366784Y-104193422D01*
X130366784Y-103893422D02*
X128966784Y-103893422D01*
X130366784Y-104193422D02*
X128966784Y-104193422D01*
X99466784Y-157693422D02*
X99466784Y-158693422D01*
X100866784Y-157693422D02*
X99466784Y-157693422D01*
X100866784Y-157693422D02*
X100866784Y-158693422D01*
X100866784Y-158393422D02*
X99466784Y-158393422D01*
X100866784Y-158693422D02*
X99466784Y-158693422D01*
X90966784Y-99193422D02*
X90966784Y-100193422D01*
X92366784Y-99193422D02*
X90966784Y-99193422D01*
X92366784Y-99193422D02*
X92366784Y-100193422D01*
X92366784Y-99893422D02*
X90966784Y-99893422D01*
X92366784Y-100193422D02*
X90966784Y-100193422D01*
D12*
X172778812Y-96920486D02*
X172778812Y-96466358D01*
X174248812Y-96920486D02*
X174248812Y-96466358D01*
D11*
X218466784Y-101693422D02*
X218466784Y-102693422D01*
X219866784Y-101693422D02*
X218466784Y-101693422D01*
X219866784Y-101693422D02*
X219866784Y-102693422D01*
X219866784Y-102393422D02*
X218466784Y-102393422D01*
X219866784Y-102693422D02*
X218466784Y-102693422D01*
X272466784Y-115193422D02*
X272466784Y-116193422D01*
X273866784Y-115193422D02*
X272466784Y-115193422D01*
X273866784Y-115193422D02*
X273866784Y-116193422D01*
X273866784Y-115893422D02*
X272466784Y-115893422D01*
X273866784Y-116193422D02*
X272466784Y-116193422D01*
X193966784Y-142693422D02*
X193966784Y-143693422D01*
X195366784Y-142693422D02*
X193966784Y-142693422D01*
X195366784Y-142693422D02*
X195366784Y-143693422D01*
X195366784Y-143393422D02*
X193966784Y-143393422D01*
X195366784Y-143693422D02*
X193966784Y-143693422D01*
X96466784Y-138193422D02*
X96466784Y-139193422D01*
X97866784Y-138193422D02*
X96466784Y-138193422D01*
X97866784Y-138193422D02*
X97866784Y-139193422D01*
X97866784Y-138893422D02*
X96466784Y-138893422D01*
X97866784Y-139193422D02*
X96466784Y-139193422D01*
M02*
