%TF.GenerationSoftware,KiCad,Pcbnew,9.0.2*%
%TF.CreationDate,2025-07-14T20:44:15+08:00*%
%TF.ProjectId,Dimple_pcb,44696d70-6c65-45f7-9063-622e6b696361,rev?*%
%TF.SameCoordinates,Original*%
%TF.FileFunction,Copper,L2,Bot*%
%TF.FilePolarity,Positive*%
%FSLAX46Y46*%
G04 Gerber Fmt 4.6, Leading zero omitted, Abs format (unit mm)*
G04 Created by KiCad (PCBNEW 9.0.2) date 2025-07-14 20:44:15*
%MOMM*%
%LPD*%
G01*
G04 APERTURE LIST*
G04 Aperture macros list*
%AMRoundRect*
0 Rectangle with rounded corners*
0 $1 Rounding radius*
0 $2 $3 $4 $5 $6 $7 $8 $9 X,Y pos of 4 corners*
0 Add a 4 corners polygon primitive as box body*
4,1,4,$2,$3,$4,$5,$6,$7,$8,$9,$2,$3,0*
0 Add four circle primitives for the rounded corners*
1,1,$1+$1,$2,$3*
1,1,$1+$1,$4,$5*
1,1,$1+$1,$6,$7*
1,1,$1+$1,$8,$9*
0 Add four rect primitives between the rounded corners*
20,1,$1+$1,$2,$3,$4,$5,0*
20,1,$1+$1,$4,$5,$6,$7,0*
20,1,$1+$1,$6,$7,$8,$9,0*
20,1,$1+$1,$8,$9,$2,$3,0*%
%AMRotRect*
0 Rectangle, with rotation*
0 The origin of the aperture is its center*
0 $1 length*
0 $2 width*
0 $3 Rotation angle, in degrees counterclockwise*
0 Add horizontal line*
21,1,$1,$2,0,0,$3*%
G04 Aperture macros list end*
%ADD10C,0.250000*%
%TA.AperFunction,NonConductor*%
%ADD11C,0.250000*%
%TD*%
%TA.AperFunction,ComponentPad*%
%ADD12R,1.800000X1.800000*%
%TD*%
%TA.AperFunction,ComponentPad*%
%ADD13C,1.800000*%
%TD*%
%TA.AperFunction,SMDPad,CuDef*%
%ADD14RotRect,2.550000X2.500000X6.000000*%
%TD*%
%TA.AperFunction,SMDPad,CuDef*%
%ADD15RotRect,2.550000X2.500000X354.000000*%
%TD*%
%TA.AperFunction,SMDPad,CuDef*%
%ADD16R,1.000000X1.250000*%
%TD*%
%TA.AperFunction,SMDPad,CuDef*%
%ADD17RoundRect,0.225000X-0.225000X-0.250000X0.225000X-0.250000X0.225000X0.250000X-0.225000X0.250000X0*%
%TD*%
%TA.AperFunction,SMDPad,CuDef*%
%ADD18RoundRect,0.075000X0.075000X-0.662500X0.075000X0.662500X-0.075000X0.662500X-0.075000X-0.662500X0*%
%TD*%
%TA.AperFunction,SMDPad,CuDef*%
%ADD19RoundRect,0.075000X0.662500X-0.075000X0.662500X0.075000X-0.662500X0.075000X-0.662500X-0.075000X0*%
%TD*%
%TA.AperFunction,SMDPad,CuDef*%
%ADD20R,1.100000X1.800000*%
%TD*%
%TA.AperFunction,SMDPad,CuDef*%
%ADD21RoundRect,0.225000X0.250000X-0.225000X0.250000X0.225000X-0.250000X0.225000X-0.250000X-0.225000X0*%
%TD*%
%TA.AperFunction,SMDPad,CuDef*%
%ADD22RoundRect,0.150000X0.587500X0.150000X-0.587500X0.150000X-0.587500X-0.150000X0.587500X-0.150000X0*%
%TD*%
%TA.AperFunction,SMDPad,CuDef*%
%ADD23RoundRect,0.250000X-0.450000X0.262500X-0.450000X-0.262500X0.450000X-0.262500X0.450000X0.262500X0*%
%TD*%
%TA.AperFunction,SMDPad,CuDef*%
%ADD24R,0.600000X1.450000*%
%TD*%
%TA.AperFunction,SMDPad,CuDef*%
%ADD25R,0.300000X1.450000*%
%TD*%
%TA.AperFunction,ComponentPad*%
%ADD26O,1.000000X1.600000*%
%TD*%
%TA.AperFunction,ComponentPad*%
%ADD27O,1.000000X2.100000*%
%TD*%
%TA.AperFunction,SMDPad,CuDef*%
%ADD28R,0.700000X1.000000*%
%TD*%
%TA.AperFunction,SMDPad,CuDef*%
%ADD29R,0.700000X0.600000*%
%TD*%
%TA.AperFunction,SMDPad,CuDef*%
%ADD30RoundRect,0.243750X0.456250X-0.243750X0.456250X0.243750X-0.456250X0.243750X-0.456250X-0.243750X0*%
%TD*%
%TA.AperFunction,SMDPad,CuDef*%
%ADD31RoundRect,0.250000X0.450000X-0.262500X0.450000X0.262500X-0.450000X0.262500X-0.450000X-0.262500X0*%
%TD*%
%TA.AperFunction,ViaPad*%
%ADD32C,0.800000*%
%TD*%
%TA.AperFunction,Conductor*%
%ADD33C,0.381000*%
%TD*%
%TA.AperFunction,Conductor*%
%ADD34C,0.254000*%
%TD*%
%TA.AperFunction,Conductor*%
%ADD35C,0.200000*%
%TD*%
G04 APERTURE END LIST*
D10*
D11*
X155747203Y-149993440D02*
X156457576Y-150068103D01*
X156457576Y-150068103D02*
X156614368Y-148576321D01*
X155249942Y-149941176D02*
X155354470Y-148946654D01*
X155406734Y-148449393D02*
X155470305Y-148527897D01*
X155470305Y-148527897D02*
X155391802Y-148591468D01*
X155391802Y-148591468D02*
X155328231Y-148512964D01*
X155328231Y-148512964D02*
X155406734Y-148449393D01*
X155406734Y-148449393D02*
X155391802Y-148591468D01*
X154857209Y-148894390D02*
X154288911Y-148834659D01*
X154696361Y-148374730D02*
X154561968Y-149653401D01*
X154561968Y-149653401D02*
X154475998Y-149788009D01*
X154475998Y-149788009D02*
X154326457Y-149844114D01*
X154326457Y-149844114D02*
X154184382Y-149829181D01*
X154004761Y-148804794D02*
X153436463Y-148745063D01*
X153843914Y-148285134D02*
X153709520Y-149563805D01*
X153709520Y-149563805D02*
X153623550Y-149698413D01*
X153623550Y-149698413D02*
X153474009Y-149754518D01*
X153474009Y-149754518D02*
X153331935Y-149739585D01*
X152621562Y-149664922D02*
X152771103Y-149608817D01*
X152771103Y-149608817D02*
X152857073Y-149474209D01*
X152857073Y-149474209D02*
X152991466Y-148195538D01*
X151492432Y-149474424D02*
X151627040Y-149560394D01*
X151627040Y-149560394D02*
X151911189Y-149590259D01*
X151911189Y-149590259D02*
X152060730Y-149534154D01*
X152060730Y-149534154D02*
X152146700Y-149399546D01*
X152146700Y-149399546D02*
X152206431Y-148831248D01*
X152206431Y-148831248D02*
X152150326Y-148681707D01*
X152150326Y-148681707D02*
X152015718Y-148595737D01*
X152015718Y-148595737D02*
X151731569Y-148565872D01*
X151731569Y-148565872D02*
X151582028Y-148621976D01*
X151582028Y-148621976D02*
X151496058Y-148756585D01*
X151496058Y-148756585D02*
X151481125Y-148898659D01*
X151481125Y-148898659D02*
X152176565Y-149115397D01*
X149936864Y-147874487D02*
X149424885Y-149328938D01*
X149424885Y-149328938D02*
X149252731Y-148233513D01*
X149252731Y-148233513D02*
X148856587Y-149269207D01*
X148856587Y-149269207D02*
X148658193Y-147740093D01*
X147933102Y-149172145D02*
X148037630Y-148177623D01*
X148089895Y-147680362D02*
X148153465Y-147758866D01*
X148153465Y-147758866D02*
X148074962Y-147822437D01*
X148074962Y-147822437D02*
X148011391Y-147743933D01*
X148011391Y-147743933D02*
X148089895Y-147680362D01*
X148089895Y-147680362D02*
X148074962Y-147822437D01*
X147327257Y-148102960D02*
X147222729Y-149097482D01*
X147312325Y-148245035D02*
X147248754Y-148166531D01*
X147248754Y-148166531D02*
X147114145Y-148080561D01*
X147114145Y-148080561D02*
X146901034Y-148058162D01*
X146901034Y-148058162D02*
X146751493Y-148114267D01*
X146751493Y-148114267D02*
X146665523Y-148248875D01*
X146665523Y-148248875D02*
X146583393Y-149030285D01*
X145338213Y-147893903D02*
X145211286Y-149101537D01*
X145211286Y-149101537D02*
X145267391Y-149251078D01*
X145267391Y-149251078D02*
X145330961Y-149329581D01*
X145330961Y-149329581D02*
X145465570Y-149415551D01*
X145465570Y-149415551D02*
X145678682Y-149437950D01*
X145678682Y-149437950D02*
X145828222Y-149381845D01*
X145241151Y-148817388D02*
X145375759Y-148903358D01*
X145375759Y-148903358D02*
X145659909Y-148933223D01*
X145659909Y-148933223D02*
X145809449Y-148877118D01*
X145809449Y-148877118D02*
X145887953Y-148813547D01*
X145887953Y-148813547D02*
X145973923Y-148678939D01*
X145973923Y-148678939D02*
X146018721Y-148252715D01*
X146018721Y-148252715D02*
X145962616Y-148103174D01*
X145962616Y-148103174D02*
X145899045Y-148024671D01*
X145899045Y-148024671D02*
X145764437Y-147938701D01*
X145764437Y-147938701D02*
X145480288Y-147908836D01*
X145480288Y-147908836D02*
X145330747Y-147964940D01*
X143386716Y-148694301D02*
X143543508Y-147202518D01*
X143543508Y-147202518D02*
X142934253Y-148215813D01*
X142934253Y-148215813D02*
X142548986Y-147097989D01*
X142548986Y-147097989D02*
X142392194Y-148589772D01*
X141980688Y-147038259D02*
X140829373Y-148425513D01*
X140986166Y-146933730D02*
X141823895Y-148530042D01*
X138414106Y-148171658D02*
X139124479Y-148246322D01*
X139124479Y-148246322D02*
X139281272Y-146754539D01*
X137916845Y-148119394D02*
X138073638Y-146627611D01*
X138073638Y-146627611D02*
X137505340Y-146567881D01*
X137505340Y-146567881D02*
X137355799Y-146623985D01*
X137355799Y-146623985D02*
X137277295Y-146687556D01*
X137277295Y-146687556D02*
X137191325Y-146822165D01*
X137191325Y-146822165D02*
X137168926Y-147035276D01*
X137168926Y-147035276D02*
X137225031Y-147184817D01*
X137225031Y-147184817D02*
X137288602Y-147263321D01*
X137288602Y-147263321D02*
X137423210Y-147349291D01*
X137423210Y-147349291D02*
X137991508Y-147409021D01*
X135658371Y-146373756D02*
X135004317Y-147813275D01*
X135004317Y-147813275D02*
X134663849Y-146269228D01*
X133228385Y-147626617D02*
X134080833Y-147716213D01*
X133654609Y-147671415D02*
X133811402Y-146179632D01*
X133811402Y-146179632D02*
X133931077Y-146407677D01*
X133931077Y-146407677D02*
X134058219Y-146564684D01*
X134058219Y-146564684D02*
X134192827Y-146650654D01*
X132603983Y-147417346D02*
X132525479Y-147480917D01*
X132525479Y-147480917D02*
X132589050Y-147559420D01*
X132589050Y-147559420D02*
X132667554Y-147495849D01*
X132667554Y-147495849D02*
X132603983Y-147417346D01*
X132603983Y-147417346D02*
X132589050Y-147559420D01*
X131751321Y-145963109D02*
X131609246Y-145948176D01*
X131609246Y-145948176D02*
X131459705Y-146004281D01*
X131459705Y-146004281D02*
X131381202Y-146067852D01*
X131381202Y-146067852D02*
X131295232Y-146202460D01*
X131295232Y-146202460D02*
X131194329Y-146479143D01*
X131194329Y-146479143D02*
X131156998Y-146834329D01*
X131156998Y-146834329D02*
X131198170Y-147125945D01*
X131198170Y-147125945D02*
X131254274Y-147275486D01*
X131254274Y-147275486D02*
X131317845Y-147353989D01*
X131317845Y-147353989D02*
X131452453Y-147439959D01*
X131452453Y-147439959D02*
X131594528Y-147454892D01*
X131594528Y-147454892D02*
X131744069Y-147398787D01*
X131744069Y-147398787D02*
X131822572Y-147335216D01*
X131822572Y-147335216D02*
X131908542Y-147200608D01*
X131908542Y-147200608D02*
X132009445Y-146923925D01*
X132009445Y-146923925D02*
X132046777Y-146568739D01*
X132046777Y-146568739D02*
X132005605Y-146277123D01*
X132005605Y-146277123D02*
X131949500Y-146127582D01*
X131949500Y-146127582D02*
X131885929Y-146049079D01*
X131885929Y-146049079D02*
X131751321Y-145963109D01*
X129321336Y-147215970D02*
X129478128Y-145724187D01*
X129418398Y-146292485D02*
X129283790Y-146206515D01*
X129283790Y-146206515D02*
X128999640Y-146176650D01*
X128999640Y-146176650D02*
X128850100Y-146232754D01*
X128850100Y-146232754D02*
X128771596Y-146296325D01*
X128771596Y-146296325D02*
X128685626Y-146430934D01*
X128685626Y-146430934D02*
X128640828Y-146857157D01*
X128640828Y-146857157D02*
X128696933Y-147006698D01*
X128696933Y-147006698D02*
X128760504Y-147085202D01*
X128760504Y-147085202D02*
X128895112Y-147171172D01*
X128895112Y-147171172D02*
X129179261Y-147201037D01*
X129179261Y-147201037D02*
X129328802Y-147144932D01*
X128218230Y-146094520D02*
X127758515Y-147051711D01*
X127507857Y-146019857D02*
X127758515Y-147051711D01*
X127758515Y-147051711D02*
X127863258Y-147421830D01*
X127863258Y-147421830D02*
X127926829Y-147500333D01*
X127926829Y-147500333D02*
X128061438Y-147586303D01*
X124988062Y-146760524D02*
X125698435Y-146835187D01*
X125698435Y-146835187D02*
X125855227Y-145343405D01*
X124606636Y-146289503D02*
X123896263Y-146214839D01*
X124703912Y-146730659D02*
X124363444Y-145186612D01*
X124363444Y-145186612D02*
X123709391Y-146626130D01*
X123510997Y-145097016D02*
X122516475Y-144992488D01*
X122516475Y-144992488D02*
X123354204Y-146588799D01*
X123354204Y-146588799D02*
X122359683Y-146484270D01*
X121581899Y-145684302D02*
X121507236Y-146394675D01*
X122161289Y-144955156D02*
X121581899Y-145684302D01*
X121581899Y-145684302D02*
X121166767Y-144850628D01*
X120512714Y-146290146D02*
X120669507Y-144798363D01*
X120669507Y-144798363D02*
X120314320Y-144761032D01*
X120314320Y-144761032D02*
X120093742Y-144809670D01*
X120093742Y-144809670D02*
X119936735Y-144936812D01*
X119936735Y-144936812D02*
X119850765Y-145071420D01*
X119850765Y-145071420D02*
X119749862Y-145348103D01*
X119749862Y-145348103D02*
X119727464Y-145561215D01*
X119727464Y-145561215D02*
X119768636Y-145852830D01*
X119768636Y-145852830D02*
X119824740Y-146002371D01*
X119824740Y-146002371D02*
X119951882Y-146159378D01*
X119951882Y-146159378D02*
X120157528Y-146252815D01*
X120157528Y-146252815D02*
X120512714Y-146290146D01*
X119103061Y-145351943D02*
X118605800Y-145299679D01*
X118310558Y-146058690D02*
X119020931Y-146133354D01*
X119020931Y-146133354D02*
X119177724Y-144641571D01*
X119177724Y-144641571D02*
X118467351Y-144566907D01*
X117749726Y-145927922D02*
X117529148Y-145976561D01*
X117529148Y-145976561D02*
X117173962Y-145939229D01*
X117173962Y-145939229D02*
X117039354Y-145853259D01*
X117039354Y-145853259D02*
X116975783Y-145774756D01*
X116975783Y-145774756D02*
X116919678Y-145625215D01*
X116919678Y-145625215D02*
X116934611Y-145483140D01*
X116934611Y-145483140D02*
X117020581Y-145348532D01*
X117020581Y-145348532D02*
X117099084Y-145284961D01*
X117099084Y-145284961D02*
X117248625Y-145228856D01*
X117248625Y-145228856D02*
X117540240Y-145187684D01*
X117540240Y-145187684D02*
X117689781Y-145131580D01*
X117689781Y-145131580D02*
X117768285Y-145068009D01*
X117768285Y-145068009D02*
X117854255Y-144933401D01*
X117854255Y-144933401D02*
X117869187Y-144791326D01*
X117869187Y-144791326D02*
X117813083Y-144641785D01*
X117813083Y-144641785D02*
X117749512Y-144563282D01*
X117749512Y-144563282D02*
X117614904Y-144477312D01*
X117614904Y-144477312D02*
X117259717Y-144439980D01*
X117259717Y-144439980D02*
X117039139Y-144488618D01*
X116250478Y-145842167D02*
X116407270Y-144350384D01*
X114908021Y-144264629D02*
X115057562Y-144208524D01*
X115057562Y-144208524D02*
X115270674Y-144230923D01*
X115270674Y-144230923D02*
X115476319Y-144324359D01*
X115476319Y-144324359D02*
X115603461Y-144481367D01*
X115603461Y-144481367D02*
X115659566Y-144630907D01*
X115659566Y-144630907D02*
X115700738Y-144922523D01*
X115700738Y-144922523D02*
X115678339Y-145135635D01*
X115678339Y-145135635D02*
X115577436Y-145412318D01*
X115577436Y-145412318D02*
X115491466Y-145546926D01*
X115491466Y-145546926D02*
X115334459Y-145674068D01*
X115334459Y-145674068D02*
X115113881Y-145722706D01*
X115113881Y-145722706D02*
X114971806Y-145707773D01*
X114971806Y-145707773D02*
X114766161Y-145614337D01*
X114766161Y-145614337D02*
X114702590Y-145535834D01*
X114702590Y-145535834D02*
X114754854Y-145038573D01*
X114754854Y-145038573D02*
X115039003Y-145068438D01*
X114048322Y-145610711D02*
X114205114Y-144118928D01*
X114205114Y-144118928D02*
X113195874Y-145521115D01*
X113195874Y-145521115D02*
X113352667Y-144029333D01*
X112567631Y-144665042D02*
X112070370Y-144612778D01*
X111775128Y-145371789D02*
X112485501Y-145446452D01*
X112485501Y-145446452D02*
X112642294Y-143954669D01*
X112642294Y-143954669D02*
X111931921Y-143880006D01*
X110283345Y-145214996D02*
X110855270Y-144556888D01*
X111135793Y-145304592D02*
X111292585Y-143812809D01*
X111292585Y-143812809D02*
X110724287Y-143753079D01*
X110724287Y-143753079D02*
X110574746Y-143809183D01*
X110574746Y-143809183D02*
X110496243Y-143872754D01*
X110496243Y-143872754D02*
X110410273Y-144007363D01*
X110410273Y-144007363D02*
X110387874Y-144220474D01*
X110387874Y-144220474D02*
X110443978Y-144370015D01*
X110443978Y-144370015D02*
X110507549Y-144448519D01*
X110507549Y-144448519D02*
X110642158Y-144534489D01*
X110642158Y-144534489D02*
X111210456Y-144594219D01*
X109722513Y-145084228D02*
X109501935Y-145132867D01*
X109501935Y-145132867D02*
X109146749Y-145095535D01*
X109146749Y-145095535D02*
X109012141Y-145009565D01*
X109012141Y-145009565D02*
X108948570Y-144931062D01*
X108948570Y-144931062D02*
X108892465Y-144781521D01*
X108892465Y-144781521D02*
X108907398Y-144639446D01*
X108907398Y-144639446D02*
X108993368Y-144504838D01*
X108993368Y-144504838D02*
X109071871Y-144441267D01*
X109071871Y-144441267D02*
X109221412Y-144385162D01*
X109221412Y-144385162D02*
X109513028Y-144343990D01*
X109513028Y-144343990D02*
X109662568Y-144287886D01*
X109662568Y-144287886D02*
X109741072Y-144224315D01*
X109741072Y-144224315D02*
X109827042Y-144089707D01*
X109827042Y-144089707D02*
X109841975Y-143947632D01*
X109841975Y-143947632D02*
X109785870Y-143798091D01*
X109785870Y-143798091D02*
X109722299Y-143719587D01*
X109722299Y-143719587D02*
X109587691Y-143633618D01*
X109587691Y-143633618D02*
X109232504Y-143596286D01*
X109232504Y-143596286D02*
X109011926Y-143644924D01*
D12*
X164706784Y-164693422D03*
D13*
X162166784Y-164693422D03*
D14*
X204553638Y-96634223D03*
X217144320Y-92756896D03*
D15*
X141104643Y-136043054D03*
X154226330Y-134868208D03*
D14*
X180123638Y-137524223D03*
X192714320Y-133646896D03*
D16*
X154166784Y-146168422D03*
X154166784Y-143218422D03*
D17*
X173366784Y-112543422D03*
X174916784Y-112543422D03*
D15*
X116684643Y-95153054D03*
X129806330Y-93978208D03*
D16*
X78666784Y-138168422D03*
X78666784Y-135218422D03*
X110666784Y-103168422D03*
X110666784Y-100218422D03*
D14*
X189223638Y-155714223D03*
X201814320Y-151836896D03*
D16*
X270666784Y-136668422D03*
X270666784Y-133718422D03*
D14*
X215283638Y-152974223D03*
X227874320Y-149096896D03*
D16*
X235166784Y-121168422D03*
X235166784Y-118218422D03*
D14*
X182883638Y-118074223D03*
X195474320Y-114196896D03*
D18*
X170416784Y-125355922D03*
X169916784Y-125355922D03*
X169416784Y-125355922D03*
X168916783Y-125355922D03*
X168416784Y-125355922D03*
X167916784Y-125355922D03*
X167416784Y-125355922D03*
X166916784Y-125355922D03*
X166416785Y-125355922D03*
X165916784Y-125355922D03*
X165416784Y-125355922D03*
X164916784Y-125355922D03*
D19*
X163504284Y-123943422D03*
X163504284Y-123443422D03*
X163504284Y-122943422D03*
X163504284Y-122443421D03*
X163504284Y-121943422D03*
X163504284Y-121443422D03*
X163504284Y-120943422D03*
X163504284Y-120443422D03*
X163504284Y-119943423D03*
X163504284Y-119443422D03*
X163504284Y-118943422D03*
X163504284Y-118443422D03*
D18*
X164916784Y-117030922D03*
X165416784Y-117030922D03*
X165916784Y-117030922D03*
X166416785Y-117030922D03*
X166916784Y-117030922D03*
X167416784Y-117030922D03*
X167916784Y-117030922D03*
X168416784Y-117030922D03*
X168916783Y-117030922D03*
X169416784Y-117030922D03*
X169916784Y-117030922D03*
X170416784Y-117030922D03*
D19*
X171829284Y-118443422D03*
X171829284Y-118943422D03*
X171829284Y-119443422D03*
X171829284Y-119943423D03*
X171829284Y-120443422D03*
X171829284Y-120943422D03*
X171829284Y-121443422D03*
X171829284Y-121943422D03*
X171829284Y-122443421D03*
X171829284Y-122943422D03*
X171829284Y-123443422D03*
X171829284Y-123943422D03*
D20*
X171516784Y-165793422D03*
X167816784Y-159593422D03*
X167816784Y-165793422D03*
X171516784Y-159593422D03*
D16*
X238166784Y-101668422D03*
X238166784Y-98718422D03*
D14*
X223513638Y-94644223D03*
X236104320Y-90766896D03*
X234208638Y-150992273D03*
X246799320Y-147114946D03*
D16*
X232666784Y-140668422D03*
X232666784Y-137718422D03*
D21*
X162666784Y-160968422D03*
X162666784Y-159418422D03*
D16*
X75666784Y-118668422D03*
X75666784Y-115718422D03*
X251666784Y-138668422D03*
X251666784Y-135718422D03*
D14*
X220763638Y-114104223D03*
X233354320Y-110226896D03*
D15*
X105964643Y-151493054D03*
X119086330Y-150318208D03*
D14*
X201833638Y-116084223D03*
X214424320Y-112206896D03*
D22*
X172904284Y-101443422D03*
X172904284Y-103343422D03*
X171029284Y-102393422D03*
D15*
X87034643Y-149493054D03*
X100156330Y-148318208D03*
D16*
X213666784Y-142668422D03*
X213666784Y-139718422D03*
D17*
X173366784Y-107780922D03*
X174916784Y-107780922D03*
D16*
X197657515Y-125168422D03*
X197657515Y-122218422D03*
X145166784Y-164168422D03*
X145166784Y-161218422D03*
X249166784Y-158168422D03*
X249166784Y-155218422D03*
X204166784Y-162668422D03*
X204166784Y-159718422D03*
D23*
X161666784Y-95780922D03*
X161666784Y-97605922D03*
D16*
X230166784Y-160168422D03*
X230166784Y-157218422D03*
X132666784Y-124668422D03*
X132666784Y-121718422D03*
D14*
X258663638Y-110124223D03*
X271254320Y-106246896D03*
D24*
X164441784Y-92303422D03*
X165216784Y-92303422D03*
D25*
X165916784Y-92303422D03*
X166416784Y-92303422D03*
X166916784Y-92303422D03*
X167416784Y-92303422D03*
X167916784Y-92303422D03*
X168416784Y-92303422D03*
X168916784Y-92303422D03*
X169416784Y-92303422D03*
D24*
X170116784Y-92303422D03*
X170891784Y-92303422D03*
D26*
X163346784Y-87208422D03*
D27*
X163346784Y-91388422D03*
D26*
X171986784Y-87208422D03*
D27*
X171986784Y-91388422D03*
D16*
X116166784Y-142168422D03*
X116166784Y-139218422D03*
D17*
X173348034Y-114130922D03*
X174898034Y-114130922D03*
D14*
X261383638Y-90674223D03*
X273974320Y-86796896D03*
D15*
X65324643Y-128063054D03*
X78446330Y-126888208D03*
D16*
X200166784Y-105668422D03*
X200166784Y-102718422D03*
X113666784Y-122668422D03*
X113666784Y-119718422D03*
D15*
X78794643Y-91173054D03*
X91916330Y-89998208D03*
D28*
X168666784Y-97443422D03*
D29*
X168666784Y-99143422D03*
X166666784Y-99143422D03*
X166666784Y-97243422D03*
D14*
X199073638Y-135534223D03*
X211664320Y-131656896D03*
D16*
X94666784Y-120668422D03*
X94666784Y-117718422D03*
X216166784Y-123168422D03*
X216166784Y-120218422D03*
X151166784Y-126668422D03*
X151166784Y-123718422D03*
X135166784Y-144168422D03*
X135166784Y-141218422D03*
X257166784Y-99668422D03*
X257166784Y-96718422D03*
D17*
X173366784Y-106193422D03*
X174916784Y-106193422D03*
X173366784Y-109368422D03*
X174916784Y-109368422D03*
D15*
X122164643Y-134053054D03*
X135286330Y-132878208D03*
X138374643Y-116593054D03*
X151496330Y-115418208D03*
D16*
X254166784Y-119168422D03*
X254166784Y-116218422D03*
D30*
X170566784Y-99330922D03*
X170566784Y-97455922D03*
D15*
X81534643Y-110613054D03*
X94656330Y-109438208D03*
D14*
X218033638Y-133544223D03*
X230624320Y-129666896D03*
X185603638Y-98624223D03*
X198194320Y-94746896D03*
D15*
X119424643Y-114603054D03*
X132546330Y-113428208D03*
D16*
X119166784Y-161668422D03*
X119166784Y-158718422D03*
D21*
X174866784Y-103068422D03*
X174866784Y-101518422D03*
D17*
X172691784Y-99693422D03*
X174241784Y-99693422D03*
D16*
X275666784Y-97668422D03*
X275666784Y-94718422D03*
D23*
X165166784Y-159280922D03*
X165166784Y-161105922D03*
D14*
X239713638Y-112114223D03*
X252304320Y-108236896D03*
D15*
X84274643Y-130053054D03*
X97396330Y-128878208D03*
X97734643Y-93163054D03*
X110856330Y-91988208D03*
D17*
X173366784Y-110955922D03*
X174916784Y-110955922D03*
D14*
X242453638Y-92664223D03*
X255044320Y-88786896D03*
D16*
X72666784Y-99168422D03*
X72666784Y-96218422D03*
X148666784Y-107168422D03*
X148666784Y-104218422D03*
X129666784Y-105168422D03*
X129666784Y-102218422D03*
X100166784Y-159668422D03*
X100166784Y-156718422D03*
D15*
X100474643Y-112603054D03*
X113596330Y-111428208D03*
D14*
X255913638Y-129564223D03*
X268504320Y-125686896D03*
D16*
X91666784Y-101168422D03*
X91666784Y-98218422D03*
D15*
X62584643Y-108623054D03*
X75706330Y-107448208D03*
D31*
X173513812Y-97605922D03*
X173513812Y-95780922D03*
D14*
X236963638Y-131554223D03*
X249554320Y-127676896D03*
D16*
X219166784Y-103668422D03*
X219166784Y-100718422D03*
D15*
X135624643Y-97143054D03*
X148746330Y-95968208D03*
D16*
X273166784Y-117168422D03*
X273166784Y-114218422D03*
X194666784Y-144668422D03*
X194666784Y-141718422D03*
X97166784Y-140168422D03*
X97166784Y-137218422D03*
D15*
X59844643Y-89183054D03*
X72966330Y-88008208D03*
X103224643Y-132043054D03*
X116346330Y-130868208D03*
X132014643Y-154243054D03*
X145136330Y-153068208D03*
D32*
X160966784Y-145193422D03*
X169266784Y-96393422D03*
X172266784Y-96793422D03*
X162466784Y-145441422D03*
X174266784Y-127393422D03*
X171860534Y-115587172D03*
X164466784Y-128093422D03*
X173266784Y-125793422D03*
X163266784Y-116993422D03*
X165566784Y-106893422D03*
X182366784Y-104993422D03*
X174466784Y-128693422D03*
X162266784Y-127293422D03*
X157466784Y-126493422D03*
X166241784Y-144968422D03*
X175066784Y-145593422D03*
X165162893Y-154089531D03*
X186066784Y-161193422D03*
X82266784Y-116393422D03*
X84266784Y-125793422D03*
X78866784Y-96193422D03*
X82166784Y-106193422D03*
X103066784Y-126993422D03*
X97866784Y-97193422D03*
X100866784Y-118193422D03*
X87866784Y-144993422D03*
X102466784Y-136993422D03*
X100866784Y-108193422D03*
X119666784Y-110393422D03*
X116666784Y-99393422D03*
X119466784Y-119793422D03*
X121466784Y-138793422D03*
X106066784Y-147193422D03*
X122266784Y-129393422D03*
X132266784Y-149993422D03*
X141066784Y-131793422D03*
X135666784Y-100593422D03*
X138866784Y-140593422D03*
X139266784Y-122793422D03*
X139066784Y-112193422D03*
X188466784Y-151693422D03*
X182883638Y-114693422D03*
X181266784Y-143593422D03*
X179666784Y-133193422D03*
X186066784Y-104093422D03*
X182366784Y-122593422D03*
X198766784Y-131393422D03*
X204566784Y-101993422D03*
X214866784Y-148593422D03*
X201666784Y-121293422D03*
X201566784Y-111593422D03*
X199766784Y-140893422D03*
X218966784Y-138393422D03*
X217766784Y-129293422D03*
X233066784Y-146793422D03*
X220266784Y-119893422D03*
X223166784Y-100293422D03*
X220266784Y-109793422D03*
X239466784Y-107793422D03*
X239766784Y-115893422D03*
X241966784Y-98393422D03*
X236666784Y-127093422D03*
X257966784Y-115293422D03*
X258666784Y-105993422D03*
X255766784Y-125293422D03*
X261466784Y-96093422D03*
X169266784Y-94393422D03*
X172866784Y-94593422D03*
X162766784Y-94293422D03*
X166066784Y-94193422D03*
D33*
X174916784Y-106193422D02*
X174916784Y-107780922D01*
D34*
X169916784Y-117030922D02*
X169916784Y-117840430D01*
D33*
X173513812Y-97605922D02*
X173513812Y-98965450D01*
X174916784Y-109368422D02*
X174916784Y-110955922D01*
X171986784Y-91388422D02*
X171986784Y-87208422D01*
X168666784Y-96993422D02*
X169266784Y-96393422D01*
X172266784Y-96793422D02*
X172701312Y-96793422D01*
X160466784Y-94993422D02*
X163346784Y-92113422D01*
X174916784Y-114112172D02*
X174898034Y-114130922D01*
X175733284Y-102384922D02*
X175733284Y-105376922D01*
D34*
X170666784Y-123443422D02*
X171829284Y-123443422D01*
X166916784Y-125355922D02*
X166916784Y-139243422D01*
X170763784Y-118096422D02*
X174729284Y-114130922D01*
D33*
X174241784Y-99693422D02*
X174241784Y-100893422D01*
X163346784Y-91388422D02*
X163526784Y-91388422D01*
X173513812Y-97605922D02*
X174605312Y-96514422D01*
D34*
X170316784Y-123443422D02*
X170666784Y-123443422D01*
X166916784Y-139243422D02*
X160966784Y-145193422D01*
D33*
X171986784Y-92513422D02*
X171986784Y-91388422D01*
X172904284Y-101030922D02*
X174241784Y-99693422D01*
D34*
X174729284Y-114130922D02*
X174898034Y-114130922D01*
D33*
X174241784Y-100893422D02*
X174866784Y-101518422D01*
X160879284Y-97605922D02*
X160466784Y-97193422D01*
X162666784Y-159418422D02*
X161266784Y-160818422D01*
X163479284Y-159418422D02*
X165166784Y-161105922D01*
X171071784Y-92303422D02*
X171986784Y-91388422D01*
X168666784Y-97443422D02*
X168666784Y-96993422D01*
D34*
X168813792Y-118943422D02*
X165166784Y-118943422D01*
X166916784Y-125355922D02*
X166916784Y-124546414D01*
D33*
X174916784Y-107780922D02*
X174916784Y-109368422D01*
X175733284Y-105376922D02*
X174916784Y-106193422D01*
D34*
X166916784Y-124546414D02*
X168019776Y-123443422D01*
D33*
X173513812Y-98965450D02*
X174241784Y-99693422D01*
X170891784Y-92303422D02*
X171071784Y-92303422D01*
X174605312Y-95131950D02*
X171986784Y-92513422D01*
X161266784Y-160818422D02*
X161266784Y-163793422D01*
X174605312Y-96514422D02*
X174605312Y-95131950D01*
X172904284Y-101443422D02*
X172904284Y-101030922D01*
D34*
X165816784Y-118943422D02*
X170316784Y-123443422D01*
X165166784Y-118943422D02*
X163504284Y-118943422D01*
D33*
X161266784Y-163793422D02*
X162166784Y-164693422D01*
X163346784Y-92113422D02*
X163346784Y-91388422D01*
X163526784Y-91388422D02*
X164441784Y-92303422D01*
D34*
X169916784Y-117840430D02*
X170172776Y-118096422D01*
D33*
X161666784Y-97605922D02*
X160879284Y-97605922D01*
D34*
X168019776Y-123443422D02*
X170666784Y-123443422D01*
D33*
X174866784Y-101518422D02*
X175733284Y-102384922D01*
X163346784Y-91388422D02*
X163346784Y-87208422D01*
D34*
X169916784Y-117840430D02*
X168813792Y-118943422D01*
D33*
X162666784Y-159418422D02*
X163479284Y-159418422D01*
X174916784Y-110955922D02*
X174916784Y-112543422D01*
X163346784Y-87208422D02*
X171986784Y-87208422D01*
X172701312Y-96793422D02*
X173513812Y-97605922D01*
X160466784Y-97193422D02*
X160466784Y-94993422D01*
D34*
X170172776Y-118096422D02*
X170763784Y-118096422D01*
X165166784Y-118943422D02*
X165816784Y-118943422D01*
D33*
X174916784Y-112543422D02*
X174916784Y-114112172D01*
D34*
X162666784Y-162653422D02*
X164706784Y-164693422D01*
X167416784Y-140491422D02*
X162466784Y-145441422D01*
X162666784Y-160968422D02*
X162666784Y-162653422D01*
X167416784Y-125355922D02*
X167416784Y-140491422D01*
X170416784Y-125355922D02*
X170416784Y-124243422D01*
X170416784Y-124243422D02*
X170716784Y-123943422D01*
D33*
X173366784Y-109368422D02*
X173366784Y-110955922D01*
X173179284Y-103068422D02*
X172904284Y-103343422D01*
D34*
X164488792Y-128093422D02*
X164466784Y-128093422D01*
D33*
X174866784Y-103068422D02*
X173179284Y-103068422D01*
X172904284Y-103343422D02*
X172904284Y-105730922D01*
X173366784Y-110955922D02*
X173366784Y-112543422D01*
D34*
X166416785Y-126165429D02*
X164488792Y-128093422D01*
D33*
X172904284Y-105730922D02*
X173366784Y-106193422D01*
X173366784Y-114112172D02*
X173348034Y-114130922D01*
D34*
X170416784Y-117030922D02*
X171860534Y-115587172D01*
D33*
X173366784Y-107780922D02*
X173366784Y-109368422D01*
D34*
X171829284Y-123943422D02*
X173266784Y-125380922D01*
D33*
X173366784Y-112543422D02*
X173366784Y-114112172D01*
D34*
X163504284Y-118443422D02*
X163266784Y-118205922D01*
X171860534Y-115587172D02*
X173316784Y-114130922D01*
X163266784Y-118205922D02*
X163266784Y-116993422D01*
X173266784Y-125380922D02*
X173266784Y-125793422D01*
D33*
X171516784Y-165793422D02*
X170575284Y-164851922D01*
D34*
X173316784Y-114130922D02*
X173348034Y-114130922D01*
D33*
X170575284Y-131084922D02*
X174266784Y-127393422D01*
D34*
X170716784Y-123943422D02*
X171829284Y-123943422D01*
D33*
X170575284Y-164851922D02*
X170575284Y-131084922D01*
X173366784Y-106193422D02*
X173366784Y-107780922D01*
D34*
X166416785Y-125355922D02*
X166416785Y-126165429D01*
D33*
X172691784Y-99693422D02*
X171029284Y-101355922D01*
X171029284Y-101355922D02*
X171029284Y-102393422D01*
X170566784Y-99330922D02*
X172329284Y-99330922D01*
X172329284Y-99330922D02*
X172691784Y-99693422D01*
D34*
X165416784Y-112143422D02*
X165416784Y-117030922D01*
X257166784Y-99668422D02*
X275666784Y-97668422D01*
X200166784Y-105668422D02*
X219166784Y-103668422D01*
X165291784Y-107168422D02*
X165566784Y-106893422D01*
X110666784Y-103168422D02*
X129666784Y-105168422D01*
X129666784Y-105168422D02*
X148666784Y-107168422D01*
X72666784Y-99168422D02*
X91666784Y-101168422D01*
X219166784Y-103668422D02*
X238166784Y-101668422D01*
X160441784Y-107168422D02*
X165416784Y-112143422D01*
X238166784Y-101668422D02*
X257166784Y-99668422D01*
X148666784Y-107168422D02*
X160441784Y-107168422D01*
X182366784Y-104993422D02*
X183041784Y-105668422D01*
X91666784Y-101168422D02*
X110666784Y-103168422D01*
X183041784Y-105668422D02*
X200166784Y-105668422D01*
X160441784Y-107168422D02*
X165291784Y-107168422D01*
X72966329Y-95918877D02*
X72966329Y-88008208D01*
X72666784Y-96218422D02*
X72966329Y-95918877D01*
X75666784Y-107487754D02*
X75706330Y-107448208D01*
X75666784Y-115718422D02*
X75666784Y-107487754D01*
X78666784Y-127108662D02*
X78446330Y-126888208D01*
X78666784Y-135218422D02*
X78666784Y-127108662D01*
X100166784Y-156718422D02*
X100166784Y-148328662D01*
X100166784Y-148328662D02*
X100156330Y-148318208D01*
X91866784Y-98018422D02*
X91866784Y-90047754D01*
X91666784Y-98218422D02*
X91866784Y-98018422D01*
X91866784Y-90047754D02*
X91916330Y-89998208D01*
X94666784Y-109448662D02*
X94656330Y-109438208D01*
X94666784Y-117718422D02*
X94666784Y-109448662D01*
X97366784Y-137018422D02*
X97366784Y-128907754D01*
X97166784Y-137218422D02*
X97366784Y-137018422D01*
X97366784Y-128907754D02*
X97396330Y-128878208D01*
X119166784Y-158718422D02*
X119166784Y-150398662D01*
X119166784Y-150398662D02*
X119086330Y-150318208D01*
X110666784Y-100218422D02*
X110766784Y-100118422D01*
X110766784Y-100118422D02*
X110766784Y-92077754D01*
X110766784Y-92077754D02*
X110856330Y-91988208D01*
X197657515Y-125168422D02*
X216166784Y-123168422D01*
X197657515Y-125168422D02*
X177991784Y-125168422D01*
X162979284Y-127293422D02*
X164916784Y-125355922D01*
X75666784Y-118668422D02*
X94666784Y-120668422D01*
X216166784Y-123168422D02*
X235166784Y-121168422D01*
X94666784Y-120668422D02*
X113666784Y-122668422D01*
X235166784Y-121168422D02*
X254166784Y-119168422D01*
X254166784Y-119168422D02*
X273166784Y-117168422D01*
X113666784Y-122668422D02*
X132666784Y-124668422D01*
X177991784Y-125168422D02*
X174466784Y-128693422D01*
X151166784Y-126668422D02*
X157291784Y-126668422D01*
X132666784Y-124668422D02*
X151166784Y-126668422D01*
X162266784Y-127293422D02*
X162979284Y-127293422D01*
X157291784Y-126668422D02*
X157466784Y-126493422D01*
X113666784Y-119718422D02*
X113666784Y-111498662D01*
X113666784Y-111498662D02*
X113596330Y-111428208D01*
X116166784Y-139218422D02*
X116166784Y-131047754D01*
X116166784Y-131047754D02*
X116346330Y-130868208D01*
X129666784Y-94117754D02*
X129806330Y-93978208D01*
X129666784Y-102218422D02*
X129666784Y-94117754D01*
X132666784Y-121718422D02*
X132666784Y-113548662D01*
X132666784Y-113548662D02*
X132546330Y-113428208D01*
X135166784Y-141218422D02*
X135166784Y-132997754D01*
X135166784Y-132997754D02*
X135286330Y-132878208D01*
X148666784Y-104218422D02*
X148666784Y-96047754D01*
X148666784Y-96047754D02*
X148746330Y-95968208D01*
X151166784Y-123718422D02*
X151496330Y-123388876D01*
X151496330Y-123388876D02*
X151496330Y-115418208D01*
X154166784Y-134927754D02*
X154226330Y-134868208D01*
X154166784Y-143218422D02*
X154166784Y-134927754D01*
X200166784Y-102718422D02*
X200166784Y-96719360D01*
X200166784Y-96719360D02*
X198194320Y-94746896D01*
X197657515Y-122218422D02*
X197657515Y-116380092D01*
X197657515Y-116380092D02*
X195474320Y-114196897D01*
X165041784Y-146168422D02*
X166241784Y-144968422D01*
X168416784Y-142793422D02*
X168416784Y-125355922D01*
X175066784Y-145593422D02*
X175991784Y-144668422D01*
X251666784Y-138668422D02*
X270666784Y-136668422D01*
X154166784Y-146168422D02*
X165041784Y-146168422D01*
X213666784Y-142668422D02*
X232666784Y-140668422D01*
X175991784Y-144668422D02*
X194666784Y-144668422D01*
X194666784Y-144668422D02*
X213666784Y-142668422D01*
X166241784Y-144968422D02*
X166741784Y-144468422D01*
X135166784Y-144168422D02*
X154166784Y-146168422D01*
X116166784Y-142168422D02*
X135166784Y-144168422D01*
X232666784Y-140668422D02*
X251666784Y-138668422D01*
X166741784Y-144468422D02*
X168416784Y-142793422D01*
X97166784Y-140168422D02*
X116166784Y-142168422D01*
X78666784Y-138168422D02*
X97166784Y-140168422D01*
X194666784Y-135599361D02*
X192714320Y-133646897D01*
X194666784Y-141718422D02*
X194666784Y-135599361D01*
X204166784Y-159718422D02*
X204166784Y-154189361D01*
X204166784Y-154189361D02*
X201814320Y-151836897D01*
X219166784Y-94779360D02*
X217144320Y-92756896D01*
X219166784Y-100718422D02*
X219166784Y-94779360D01*
X216166784Y-113949361D02*
X214424320Y-112206897D01*
X216166784Y-120218422D02*
X216166784Y-113949361D01*
X213666784Y-139718422D02*
X213666784Y-133659361D01*
X213666784Y-133659361D02*
X211664320Y-131656897D01*
X238166784Y-98718422D02*
X238166784Y-92829361D01*
X238166784Y-92829361D02*
X236104320Y-90766897D01*
X235166784Y-112039361D02*
X233354320Y-110226897D01*
X235166784Y-118218422D02*
X235166784Y-112039361D01*
X232666784Y-137718422D02*
X232666784Y-131709361D01*
X232666784Y-131709361D02*
X230624320Y-129666897D01*
X230166784Y-157218422D02*
X230166784Y-151389361D01*
X230166784Y-151389361D02*
X227874320Y-149096897D01*
X257166784Y-96718422D02*
X257166784Y-90909361D01*
X257166784Y-90909361D02*
X255044320Y-88786897D01*
X254166784Y-116218422D02*
X254166784Y-110099361D01*
X254166784Y-110099361D02*
X252304320Y-108236897D01*
X187541784Y-162668422D02*
X204166784Y-162668422D01*
X186066784Y-161193422D02*
X187541784Y-162668422D01*
X119166784Y-161668422D02*
X145166784Y-164168422D01*
X168916783Y-145343423D02*
X165162893Y-149097313D01*
X204166784Y-162668422D02*
X230166784Y-160168422D01*
X168916783Y-125355922D02*
X168916783Y-145343423D01*
X165162893Y-149097313D02*
X165162893Y-154089531D01*
X165162893Y-154089531D02*
X155084002Y-164168422D01*
X100166784Y-159668422D02*
X119166784Y-161668422D01*
X230166784Y-160168422D02*
X249166784Y-158168422D01*
X155084002Y-164168422D02*
X145166784Y-164168422D01*
X251666784Y-129789361D02*
X249554320Y-127676897D01*
X251666784Y-135718422D02*
X251666784Y-129789361D01*
X249166784Y-149482411D02*
X246799320Y-147114947D01*
X249166784Y-155218422D02*
X249166784Y-149482411D01*
X275666784Y-94718422D02*
X275666784Y-88489361D01*
X275666784Y-88489361D02*
X273974320Y-86796897D01*
X62584643Y-115211281D02*
X65324643Y-117951281D01*
X163504284Y-119443422D02*
X162116784Y-119443422D01*
X62584643Y-99193422D02*
X62584643Y-108623054D01*
X162116784Y-119443422D02*
X151266784Y-108593422D01*
X59844643Y-89183055D02*
X59844643Y-95571281D01*
X62584643Y-98311281D02*
X62584643Y-99193422D01*
X65324643Y-117951281D02*
X65324643Y-128063054D01*
X62584643Y-99193422D02*
X151266784Y-108593422D01*
X62584643Y-108623054D02*
X62584643Y-115211281D01*
X59844643Y-95571281D02*
X62584643Y-98311281D01*
X84274643Y-130053054D02*
X84274643Y-125801281D01*
X81534643Y-115661281D02*
X82266784Y-116393422D01*
X86866784Y-102414723D02*
X82166784Y-106193422D01*
X150871707Y-109198345D02*
X161616785Y-119943423D01*
X161616785Y-119943423D02*
X163504284Y-119943423D01*
X78794643Y-96121281D02*
X78866784Y-96193422D01*
X78794643Y-91173054D02*
X78794643Y-96121281D01*
X84274643Y-125801281D02*
X84266784Y-125793422D01*
X82166784Y-106193422D02*
X81534643Y-106825563D01*
X86866784Y-102414723D02*
X150865301Y-109198345D01*
X150865301Y-109198345D02*
X150871707Y-109198345D01*
X81534643Y-110613054D02*
X81534643Y-115661281D01*
X81534643Y-106825563D02*
X81534643Y-110613054D01*
X100474643Y-108585563D02*
X100474643Y-112603054D01*
X162316784Y-120443422D02*
X159366784Y-123393422D01*
X159366784Y-123393422D02*
X159366784Y-127493422D01*
X103224643Y-132043054D02*
X103224643Y-136235563D01*
X103224643Y-136235563D02*
X102466784Y-136993422D01*
X103066784Y-126993422D02*
X103224643Y-127151281D01*
X87866784Y-144993422D02*
X87034643Y-145825563D01*
X97734643Y-93163054D02*
X97734643Y-97061281D01*
X159366784Y-127493422D02*
X156666784Y-130193422D01*
X105266784Y-124793422D02*
X156666784Y-130193422D01*
X87034643Y-145825563D02*
X87034643Y-149493054D01*
X100474643Y-112603054D02*
X100474643Y-117801281D01*
X100474643Y-117801281D02*
X100866784Y-118193422D01*
X103224643Y-127151281D02*
X103224643Y-132043054D01*
X103066784Y-126993422D02*
X105266784Y-124793422D01*
X163504284Y-120443422D02*
X162316784Y-120443422D01*
X100866784Y-108193422D02*
X100474643Y-108585563D01*
X97734643Y-97061281D02*
X97866784Y-97193422D01*
X124066784Y-127593422D02*
X157066784Y-131072338D01*
X119424643Y-110635563D02*
X119424643Y-114603054D01*
X116684643Y-95153054D02*
X116684643Y-99375563D01*
X116684643Y-99375563D02*
X116666784Y-99393422D01*
X159820784Y-123581474D02*
X159820784Y-127681474D01*
X122164643Y-129495563D02*
X122164643Y-134053054D01*
X106066784Y-147193422D02*
X105964643Y-147295563D01*
X122266784Y-129393422D02*
X124066784Y-127593422D01*
X162458836Y-120943422D02*
X159820784Y-123581474D01*
X105964643Y-147295563D02*
X105964643Y-151493054D01*
X159812784Y-128326338D02*
X157066784Y-131072338D01*
X119666784Y-110393422D02*
X119424643Y-110635563D01*
X159812784Y-127689475D02*
X159812784Y-128326338D01*
X122266784Y-129393422D02*
X122164643Y-129495563D01*
X122164643Y-138095563D02*
X121466784Y-138793422D01*
X159820784Y-127681474D02*
X159812784Y-127689475D01*
X163504284Y-120943422D02*
X162458836Y-120943422D01*
X119424643Y-119751281D02*
X119466784Y-119793422D01*
X119424643Y-114603054D02*
X119424643Y-119751281D01*
X122164643Y-134053054D02*
X122164643Y-138095563D01*
X132266784Y-149993422D02*
X132014643Y-150245563D01*
X132014643Y-150245563D02*
X132014643Y-154243054D01*
X143066784Y-130193422D02*
X141466784Y-131793422D01*
X138374643Y-121901281D02*
X139266784Y-122793422D01*
X161605780Y-122532418D02*
X162694776Y-121443422D01*
X157166784Y-131658357D02*
X143066784Y-130193422D01*
X161605780Y-122532418D02*
X160274784Y-123863414D01*
X138374643Y-116593054D02*
X138374643Y-121901281D01*
X160266784Y-128558357D02*
X157166784Y-131658357D01*
X138374643Y-113285563D02*
X138374643Y-116593054D01*
X139066784Y-112593422D02*
X138374643Y-113285563D01*
X141104643Y-131831281D02*
X141066784Y-131793422D01*
X162694776Y-121443422D02*
X163504284Y-121443422D01*
X160266784Y-127877527D02*
X160266784Y-128558357D01*
X135624643Y-97143054D02*
X135624643Y-100551281D01*
X160274784Y-123863414D02*
X160274784Y-127869526D01*
X141466784Y-131793422D02*
X141066784Y-131793422D01*
X141104643Y-138355563D02*
X138866784Y-140593422D01*
X141104643Y-136043054D02*
X141104643Y-131831281D01*
X160274784Y-127869526D02*
X160266784Y-127877527D01*
X135624643Y-100551281D02*
X135666784Y-100593422D01*
X141104643Y-136043054D02*
X141104643Y-138355563D01*
X139066784Y-112193422D02*
X139066784Y-112593422D01*
X180216784Y-120443422D02*
X182366784Y-122593422D01*
X182883638Y-118074223D02*
X182883638Y-122076568D01*
X180123638Y-137524223D02*
X180123638Y-142450276D01*
X182883638Y-122076568D02*
X182366784Y-122593422D01*
X185603638Y-103630276D02*
X186066784Y-104093422D01*
X180123638Y-142450276D02*
X181266784Y-143593422D01*
X179666784Y-133193422D02*
X180123638Y-133650276D01*
X188466784Y-151693422D02*
X189223638Y-152450276D01*
X180123638Y-133650276D02*
X180123638Y-137524223D01*
X182883638Y-118074223D02*
X182883638Y-114693422D01*
X189223638Y-152450276D02*
X189223638Y-155714223D01*
X185603638Y-98624223D02*
X185603638Y-103630276D01*
X171829284Y-120443422D02*
X180216784Y-120443422D01*
X199073638Y-131700276D02*
X199073638Y-135534223D01*
X214866784Y-152557369D02*
X215283638Y-152974223D01*
X200466784Y-111393422D02*
X201566784Y-111593422D01*
X182266784Y-113293422D02*
X175616783Y-119943423D01*
X198716784Y-111567594D02*
X200466784Y-111393422D01*
X198716784Y-111567594D02*
X185016784Y-113019250D01*
X204553638Y-96634223D02*
X204553638Y-101980276D01*
X201833638Y-111860276D02*
X201833638Y-116084223D01*
X199073638Y-135534223D02*
X199073638Y-140200276D01*
X201833638Y-116084223D02*
X201833638Y-121126568D01*
X185016784Y-113019250D02*
X182266784Y-113293422D01*
X199073638Y-140200276D02*
X199766784Y-140893422D01*
X201833638Y-121126568D02*
X201666784Y-121293422D01*
X201566784Y-111593422D02*
X201833638Y-111860276D01*
X198766784Y-131393422D02*
X199073638Y-131700276D01*
X214866784Y-148593422D02*
X214866784Y-152557369D01*
X204553638Y-101980276D02*
X204566784Y-101993422D01*
X175616783Y-119943423D02*
X171829284Y-119943423D01*
X217066784Y-108993422D02*
X220266784Y-109793422D01*
X233066784Y-146793422D02*
X233066784Y-146893422D01*
X220266784Y-109793422D02*
X220763638Y-110290276D01*
X233066784Y-146893422D02*
X234208638Y-148035276D01*
X220763638Y-119396568D02*
X220266784Y-119893422D01*
X175374731Y-119443422D02*
X182095757Y-112722395D01*
X220763638Y-114104223D02*
X220763638Y-119396568D01*
X223513638Y-94644223D02*
X223513638Y-99946568D01*
X217766784Y-129293422D02*
X218033638Y-129560276D01*
X220763638Y-110290276D02*
X220763638Y-114104223D01*
X223513638Y-99946568D02*
X223166784Y-100293422D01*
X184966784Y-112493422D02*
X217066784Y-108993422D01*
X234208638Y-148035276D02*
X234208638Y-150992273D01*
X171829284Y-119443422D02*
X175374731Y-119443422D01*
X218033638Y-133544223D02*
X218033638Y-137460276D01*
X184966784Y-112493422D02*
X182095757Y-112722395D01*
X218033638Y-129560276D02*
X218033638Y-133544223D01*
X218033638Y-137460276D02*
X218966784Y-138393422D01*
X184366784Y-109293422D02*
X231066784Y-104173196D01*
X183916784Y-109343422D02*
X184366784Y-109293422D01*
X239713638Y-115840276D02*
X239766784Y-115893422D01*
X231066784Y-104173196D02*
X239466784Y-107793422D01*
X242453638Y-92664223D02*
X242453638Y-97906568D01*
X171829284Y-118943422D02*
X174316784Y-118943422D01*
X174316784Y-118943422D02*
X183916784Y-109343422D01*
X239713638Y-108040276D02*
X239713638Y-112114223D01*
X236666784Y-127093422D02*
X236963638Y-127390276D01*
X239466784Y-107793422D02*
X239713638Y-108040276D01*
X236963638Y-127390276D02*
X236963638Y-131554223D01*
X242453638Y-97906568D02*
X241966784Y-98393422D01*
X239713638Y-112114223D02*
X239713638Y-115840276D01*
X257866784Y-105193422D02*
X252512498Y-105193422D01*
X183998102Y-108593422D02*
X174148102Y-118443422D01*
X258663638Y-110124223D02*
X258663638Y-114596568D01*
X258666784Y-105993422D02*
X257866784Y-105193422D01*
X252512498Y-105193422D02*
X249039641Y-101720565D01*
X258663638Y-114596568D02*
X257966784Y-115293422D01*
X249039641Y-101720565D02*
X184066784Y-108593422D01*
X258663638Y-110124223D02*
X258663638Y-105996568D01*
X258663638Y-105996568D02*
X258666784Y-105993422D01*
X184066784Y-108593422D02*
X183998102Y-108593422D01*
X261383638Y-96010276D02*
X261466784Y-96093422D01*
X174148102Y-118443422D02*
X171829284Y-118443422D01*
X255913638Y-125440276D02*
X255913638Y-129564223D01*
X261383638Y-90674223D02*
X261383638Y-96010276D01*
X255766784Y-125293422D02*
X255913638Y-125440276D01*
D33*
X170566784Y-97455922D02*
X170116784Y-97005922D01*
X165216784Y-95793422D02*
X165216784Y-92303422D01*
X170116784Y-97005922D02*
X170116784Y-92303422D01*
X165811284Y-90602922D02*
X169522284Y-90602922D01*
X165216784Y-91197422D02*
X165811284Y-90602922D01*
X170116784Y-91197422D02*
X170116784Y-92303422D01*
X166666784Y-97243422D02*
X165216784Y-95793422D01*
X165216784Y-92303422D02*
X165216784Y-91197422D01*
X169522284Y-90602922D02*
X170116784Y-91197422D01*
D34*
X169416784Y-92303422D02*
X169416784Y-94243422D01*
X172866784Y-95133894D02*
X173513812Y-95780922D01*
X169416784Y-94243422D02*
X169266784Y-94393422D01*
X172866784Y-94593422D02*
X172866784Y-95133894D01*
X273166784Y-114218422D02*
X273166784Y-108159361D01*
X273166784Y-108159361D02*
X271254320Y-106246897D01*
X145166784Y-161218422D02*
X145166784Y-153098662D01*
X145166784Y-153098662D02*
X145136330Y-153068208D01*
X270666784Y-133718422D02*
X270666784Y-127849361D01*
X270666784Y-127849361D02*
X268504320Y-125686897D01*
X174266784Y-126365288D02*
X174266784Y-123571413D01*
X167504284Y-159280922D02*
X167816784Y-159593422D01*
X167816784Y-159243422D02*
X170057783Y-157002423D01*
X172638793Y-121943422D02*
X171829284Y-121943422D01*
X170057783Y-130574289D02*
X174266784Y-126365288D01*
X167816784Y-159593422D02*
X167816784Y-159243422D01*
X165166784Y-159280922D02*
X167504284Y-159280922D01*
X170057783Y-157002423D02*
X170057783Y-130574289D01*
X174266784Y-123571413D02*
X172638793Y-121943422D01*
X162766784Y-94293422D02*
X162766784Y-94680922D01*
X166416784Y-92303422D02*
X166416784Y-93843422D01*
X166416784Y-93843422D02*
X166066784Y-94193422D01*
X162766784Y-94680922D02*
X161666784Y-95780922D01*
D35*
X168416784Y-117030922D02*
X168416784Y-116259598D01*
X167149784Y-91093422D02*
X167683784Y-91093422D01*
X167683784Y-91093422D02*
X167916784Y-91326422D01*
X167317784Y-98492422D02*
X166666784Y-99143422D01*
X166916784Y-91326422D02*
X167149784Y-91093422D01*
X168416784Y-116259598D02*
X167466784Y-115309598D01*
X167916784Y-91326422D02*
X167916784Y-92303422D01*
X167466784Y-115309598D02*
X167466784Y-99943422D01*
X166916784Y-92303422D02*
X166916784Y-96241422D01*
X166916784Y-96241422D02*
X167317784Y-96642422D01*
X167317784Y-96642422D02*
X167317784Y-98492422D01*
X167466784Y-99943422D02*
X166666784Y-99143422D01*
X166916784Y-92303422D02*
X166916784Y-91326422D01*
X168203784Y-93493422D02*
X168416784Y-93280422D01*
X167629784Y-93493422D02*
X168203784Y-93493422D01*
X167416784Y-93280422D02*
X167629784Y-93493422D01*
X167416784Y-92303422D02*
X167416784Y-93280422D01*
X168416784Y-92303422D02*
X168416784Y-96241422D01*
X168666784Y-99143422D02*
X167867784Y-99942422D01*
X168416784Y-93280422D02*
X168416784Y-92303422D01*
X168015784Y-98492422D02*
X168666784Y-99143422D01*
X167867784Y-99942422D02*
X167867784Y-115143498D01*
X168916783Y-116192497D02*
X168916783Y-117030922D01*
X167867784Y-115143498D02*
X168916783Y-116192497D01*
X168015784Y-96642422D02*
X168015784Y-98492422D01*
X168416784Y-96241422D02*
X168015784Y-96642422D01*
M02*
