%TF.GenerationSoftware,KiCad,Pcbnew,9.0.2*%
%TF.CreationDate,2025-07-14T20:44:15+08:00*%
%TF.ProjectId,Dimple_pcb,44696d70-6c65-45f7-9063-622e6b696361,rev?*%
%TF.SameCoordinates,Original*%
%TF.FileFunction,Profile,NP*%
%FSLAX46Y46*%
G04 Gerber Fmt 4.6, Leading zero omitted, Abs format (unit mm)*
G04 Created by KiCad (PCBNEW 9.0.2) date 2025-07-14 20:44:15*
%MOMM*%
%LPD*%
G01*
G04 APERTURE LIST*
%TA.AperFunction,Profile*%
%ADD10C,0.050000*%
%TD*%
G04 APERTURE END LIST*
D10*
X270911452Y-139383081D02*
X250212965Y-141558580D01*
X64427689Y-139383081D02*
G75*
G02*
X62647621Y-137184971I209011J1989081D01*
G01*
X64427689Y-139383081D02*
X85126175Y-141558580D01*
X86118474Y-160817807D02*
X154629545Y-168018611D01*
X154629545Y-168018611D02*
X180709595Y-168018611D01*
X232272515Y-144291269D02*
G75*
G02*
X229872515Y-144291269I-1200000J0D01*
G01*
X229872515Y-144291269D02*
G75*
G02*
X232272515Y-144291269I1200000J0D01*
G01*
X58580147Y-84761669D02*
X57157415Y-98298062D01*
X273758900Y-101779444D02*
X275436582Y-117741521D01*
X62647702Y-137184980D02*
X64325384Y-121222903D01*
X251000653Y-158619706D02*
X249322971Y-142657629D01*
X162666784Y-86693422D02*
G75*
G02*
X163166784Y-86193384I500016J22D01*
G01*
X61682545Y-119939622D02*
G75*
G02*
X59902580Y-117741523I209055J1989022D01*
G01*
X172166784Y-86193422D02*
G75*
G02*
X172666778Y-86693422I16J-499978D01*
G01*
X168866784Y-149693422D02*
G75*
G02*
X166466784Y-149693422I-1200000J0D01*
G01*
X166466784Y-149693422D02*
G75*
G02*
X168866784Y-149693422I1200000J0D01*
G01*
X199876873Y-109392537D02*
G75*
G02*
X197476873Y-109392537I-1200000J0D01*
G01*
X197476873Y-109392537D02*
G75*
G02*
X199876873Y-109392537I1200000J0D01*
G01*
X173666784Y-92693422D02*
G75*
G02*
X172666778Y-91693422I16J1000022D01*
G01*
X173666784Y-92693422D02*
X182159857Y-92693422D01*
X276758993Y-84761669D02*
X278181725Y-98298062D01*
X60690247Y-100680395D02*
G75*
G02*
X61580206Y-101779440I-104547J-994505D01*
G01*
X63435390Y-120123854D02*
G75*
G02*
X64325444Y-121222909I-104490J-994546D01*
G01*
X172166784Y-86193422D02*
X163166784Y-86193422D01*
X162666784Y-91693422D02*
G75*
G02*
X161666784Y-92693484I-1000084J22D01*
G01*
X272691439Y-137184980D02*
G75*
G02*
X270911447Y-139383036I-1989039J-209020D01*
G01*
X58937402Y-100496163D02*
X60690247Y-100680395D01*
X249322971Y-142657629D02*
G75*
G02*
X250212964Y-141558572I994529J104529D01*
G01*
X274560892Y-82981682D02*
G75*
G02*
X276759005Y-84761668I209008J-1989118D01*
G01*
X58937402Y-100496163D02*
G75*
G02*
X57157431Y-98298064I209098J1989063D01*
G01*
X251000653Y-158619706D02*
G75*
G02*
X249220671Y-160817855I-1989053J-209094D01*
G01*
X60778248Y-82981682D02*
X153179284Y-92693422D01*
X137871784Y-109398422D02*
G75*
G02*
X135471784Y-109398422I-1200000J0D01*
G01*
X135471784Y-109398422D02*
G75*
G02*
X137871784Y-109398422I1200000J0D01*
G01*
X161666784Y-92693422D02*
X153179284Y-92693422D01*
X61682545Y-119939622D02*
X63435390Y-120123854D01*
X162666784Y-86693422D02*
X162666784Y-91693422D01*
X84338487Y-158619706D02*
X86016169Y-142657629D01*
X85126175Y-141558580D02*
G75*
G02*
X86016125Y-142657624I-104575J-994520D01*
G01*
X105471784Y-144298422D02*
G75*
G02*
X103071784Y-144298422I-1200000J0D01*
G01*
X103071784Y-144298422D02*
G75*
G02*
X105471784Y-144298422I1200000J0D01*
G01*
X59902558Y-117741521D02*
X61580241Y-101779444D01*
X271013756Y-121222903D02*
G75*
G02*
X271903751Y-120123861I994544J104503D01*
G01*
X256706873Y-103432537D02*
G75*
G02*
X254306873Y-103432537I-1200000J0D01*
G01*
X254306873Y-103432537D02*
G75*
G02*
X256706873Y-103432537I1200000J0D01*
G01*
X172666784Y-86693422D02*
X172666784Y-91693422D01*
X276401738Y-100496163D02*
X274648894Y-100680395D01*
X271013756Y-121222903D02*
X272691439Y-137184980D01*
X249220666Y-160817807D02*
X180709595Y-168018611D01*
X275436582Y-117741521D02*
G75*
G02*
X273656601Y-119939680I-1989082J-209079D01*
G01*
X86118474Y-160817807D02*
G75*
G02*
X84338500Y-158619707I209026J1989007D01*
G01*
X58580147Y-84761669D02*
G75*
G02*
X60778251Y-82981649I1989053J-209031D01*
G01*
X273758900Y-101779444D02*
G75*
G02*
X274648894Y-100680396I994500J104544D01*
G01*
X81041784Y-103428422D02*
G75*
G02*
X78641784Y-103428422I-1200000J0D01*
G01*
X78641784Y-103428422D02*
G75*
G02*
X81041784Y-103428422I1200000J0D01*
G01*
X273656595Y-119939622D02*
X271903750Y-120123854D01*
X274560892Y-82981682D02*
X182159857Y-92693422D01*
X278181725Y-98298062D02*
G75*
G02*
X276401743Y-100496214I-1989125J-209038D01*
G01*
M02*
