%TF.GenerationSoftware,KiCad,Pcbnew,9.0.2*%
%TF.CreationDate,2025-07-14T20:44:15+08:00*%
%TF.ProjectId,Dimple_pcb,44696d70-6c65-45f7-9063-622e6b696361,rev?*%
%TF.SameCoordinates,Original*%
%TF.FileFunction,Soldermask,Top*%
%TF.FilePolarity,Negative*%
%FSLAX46Y46*%
G04 Gerber Fmt 4.6, Leading zero omitted, Abs format (unit mm)*
G04 Created by KiCad (PCBNEW 9.0.2) date 2025-07-14 20:44:15*
%MOMM*%
%LPD*%
G01*
G04 APERTURE LIST*
%ADD10R,1.800000X1.800000*%
%ADD11C,1.800000*%
%ADD12C,1.550000*%
%ADD13C,3.000000*%
%ADD14C,4.500000*%
%ADD15C,0.650000*%
%ADD16O,1.000000X1.600000*%
%ADD17O,1.000000X2.100000*%
G04 APERTURE END LIST*
D10*
X164706784Y-164693422D03*
D11*
X162166784Y-164693422D03*
D12*
X216917499Y-97888719D03*
D13*
X213860409Y-93102050D03*
D14*
X211865328Y-98419724D03*
D13*
X207810697Y-96291892D03*
D12*
X206813157Y-98950729D03*
X152937499Y-139840729D03*
D13*
X150942418Y-134523055D03*
D14*
X147885328Y-139309724D03*
D13*
X144361702Y-136385385D03*
D12*
X142833157Y-138778719D03*
X192487499Y-138778719D03*
D13*
X189430409Y-133992050D03*
D14*
X187435328Y-139309724D03*
D13*
X183380697Y-137181892D03*
D12*
X182383157Y-139840729D03*
X128517499Y-98950729D03*
D13*
X126522418Y-93633055D03*
D14*
X123465328Y-98419724D03*
D13*
X119941702Y-95495385D03*
D12*
X118413157Y-97888719D03*
X201587499Y-156968719D03*
D13*
X198530409Y-152182050D03*
D14*
X196535328Y-157499724D03*
D13*
X192480697Y-155371892D03*
D12*
X191483157Y-158030729D03*
X227647499Y-154228719D03*
D13*
X224590409Y-149442050D03*
D14*
X222595328Y-154759724D03*
D13*
X218540697Y-152631892D03*
D12*
X217543157Y-155290729D03*
X195247499Y-119328719D03*
D13*
X192190409Y-114542050D03*
D14*
X190195328Y-119859724D03*
D13*
X186140697Y-117731892D03*
D12*
X185143157Y-120390729D03*
X235877499Y-95898719D03*
D13*
X232820409Y-91112050D03*
D14*
X230825328Y-96429724D03*
D13*
X226770697Y-94301892D03*
D12*
X225773157Y-96960729D03*
X246572499Y-152246769D03*
D13*
X243515409Y-147460100D03*
D14*
X241520328Y-152777774D03*
D13*
X237465697Y-150649942D03*
D12*
X236468157Y-153308779D03*
X233127499Y-115358719D03*
D13*
X230070409Y-110572050D03*
D14*
X228075328Y-115889724D03*
D13*
X224020697Y-113761892D03*
D12*
X223023157Y-116420729D03*
X117797499Y-155290729D03*
D13*
X115802418Y-149973055D03*
D14*
X112745328Y-154759724D03*
D13*
X109221702Y-151835385D03*
D12*
X107693157Y-154228719D03*
X214197499Y-117338719D03*
D13*
X211140409Y-112552050D03*
D14*
X209145328Y-117869724D03*
D13*
X205090697Y-115741892D03*
D12*
X204093157Y-118400729D03*
X98867499Y-153290729D03*
D13*
X96872418Y-147973055D03*
D14*
X93815328Y-152759724D03*
D13*
X90291702Y-149835385D03*
D12*
X88763157Y-152228719D03*
X271027499Y-111378719D03*
D13*
X267970409Y-106592050D03*
D14*
X265975328Y-111909724D03*
D13*
X261920697Y-109781892D03*
D12*
X260923157Y-112440729D03*
D15*
X164776784Y-90858422D03*
X170556784Y-90858422D03*
D16*
X163346784Y-87208422D03*
D17*
X163346784Y-91388422D03*
D16*
X171986784Y-87208422D03*
D17*
X171986784Y-91388422D03*
D12*
X273747499Y-91928719D03*
D13*
X270690409Y-87142050D03*
D14*
X268695328Y-92459724D03*
D13*
X264640697Y-90331892D03*
D12*
X263643157Y-92990729D03*
X77157499Y-131860729D03*
D13*
X75162418Y-126543055D03*
D14*
X72105328Y-131329724D03*
D13*
X68581702Y-128405385D03*
D12*
X67053157Y-130798719D03*
X90627499Y-94970729D03*
D13*
X88632418Y-89653055D03*
D14*
X85575328Y-94439724D03*
D13*
X82051702Y-91515385D03*
D12*
X80523157Y-93908719D03*
X211437499Y-136788719D03*
D13*
X208380409Y-132002050D03*
D14*
X206385328Y-137319724D03*
D13*
X202330697Y-135191892D03*
D12*
X201333157Y-137850729D03*
X133997499Y-137850729D03*
D13*
X132002418Y-132533055D03*
D14*
X128945328Y-137319724D03*
D13*
X125421702Y-134395385D03*
D12*
X123893157Y-136788719D03*
X150207499Y-120390729D03*
D13*
X148212418Y-115073055D03*
D14*
X145155328Y-119859724D03*
D13*
X141631702Y-116935385D03*
D12*
X140103157Y-119328719D03*
X93367499Y-114410729D03*
D13*
X91372418Y-109093055D03*
D14*
X88315328Y-113879724D03*
D13*
X84791702Y-110955385D03*
D12*
X83263157Y-113348719D03*
X230397499Y-134798719D03*
D13*
X227340409Y-130012050D03*
D14*
X225345328Y-135329724D03*
D13*
X221290697Y-133201892D03*
D12*
X220293157Y-135860729D03*
X197967499Y-99878719D03*
D13*
X194910409Y-95092050D03*
D14*
X192915328Y-100409724D03*
D13*
X188860697Y-98281892D03*
D12*
X187863157Y-100940729D03*
X131257499Y-118400729D03*
D13*
X129262418Y-113083055D03*
D14*
X126205328Y-117869724D03*
D13*
X122681702Y-114945385D03*
D12*
X121153157Y-117338719D03*
X252077499Y-113368719D03*
D13*
X249020409Y-108582050D03*
D14*
X247025328Y-113899724D03*
D13*
X242970697Y-111771892D03*
D12*
X241973157Y-114430729D03*
X96107499Y-133850729D03*
D13*
X94112418Y-128533055D03*
D14*
X91055328Y-133319724D03*
D13*
X87531702Y-130395385D03*
D12*
X86003157Y-132788719D03*
X109567499Y-96960729D03*
D13*
X107572418Y-91643055D03*
D14*
X104515328Y-96429724D03*
D13*
X100991702Y-93505385D03*
D12*
X99463157Y-95898719D03*
X254817499Y-93918719D03*
D13*
X251760409Y-89132050D03*
D14*
X249765328Y-94449724D03*
D13*
X245710697Y-92321892D03*
D12*
X244713157Y-94980729D03*
X112307499Y-116400729D03*
D13*
X110312418Y-111083055D03*
D14*
X107255328Y-115869724D03*
D13*
X103731702Y-112945385D03*
D12*
X102203157Y-115338719D03*
X268277499Y-130818719D03*
D13*
X265220409Y-126032050D03*
D14*
X263225328Y-131349724D03*
D13*
X259170697Y-129221892D03*
D12*
X258173157Y-131880729D03*
X74417499Y-112420729D03*
D13*
X72422418Y-107103055D03*
D14*
X69365328Y-111889724D03*
D13*
X65841702Y-108965385D03*
D12*
X64313157Y-111358719D03*
X249327499Y-132808719D03*
D13*
X246270409Y-128022050D03*
D14*
X244275328Y-133339724D03*
D13*
X240220697Y-131211892D03*
D12*
X239223157Y-133870729D03*
X147457499Y-100940729D03*
D13*
X145462418Y-95623055D03*
D14*
X142405328Y-100409724D03*
D13*
X138881702Y-97485385D03*
D12*
X137353157Y-99878719D03*
X71677499Y-92980729D03*
D13*
X69682418Y-87663055D03*
D14*
X66625328Y-92449724D03*
D13*
X63101702Y-89525385D03*
D12*
X61573157Y-91918719D03*
X115057499Y-135840729D03*
D13*
X113062418Y-130523055D03*
D14*
X110005328Y-135309724D03*
D13*
X106481702Y-132385385D03*
D12*
X104953157Y-134778719D03*
X143847499Y-158040729D03*
D13*
X141852418Y-152723055D03*
D14*
X138795328Y-157509724D03*
D13*
X135271702Y-154585385D03*
D12*
X133743157Y-156978719D03*
M02*
