M48
; DRILL file {KiCad 9.0.2} date 2025-09-05T14:25:22+0800
; FORMAT={-:-/ absolute / metric / decimal}
; #@! TF.CreationDate,2025-09-05T14:25:22+08:00
; #@! TF.GenerationSoftware,Kicad,Pcbnew,9.0.2
; #@! TF.FileFunction,Plated,1,2,PTH
FMAT,2
METRIC
; #@! TA.AperFunction,Plated,PTH,ViaDrill
T1C0.400
; #@! TA.AperFunction,Plated,PTH,ComponentDrill
T2C0.600
; #@! TA.AperFunction,Plated,PTH,ComponentDrill
T3C0.900
%
G90
G05
T1
X75.517Y-139.993
X78.867Y-96.193
X82.167Y-106.193
X82.267Y-116.393
X83.617Y-134.143
X84.267Y-125.793
X87.867Y-144.993
X97.867Y-97.193
X100.867Y-108.193
X100.867Y-118.193
X102.467Y-136.993
X103.067Y-126.993
X106.067Y-147.193
X116.667Y-99.393
X119.467Y-119.793
X119.667Y-110.393
X121.467Y-138.793
X122.267Y-129.393
X132.267Y-149.993
X135.667Y-100.593
X138.867Y-140.593
X139.067Y-112.193
X139.267Y-122.793
X141.067Y-131.793
X157.467Y-126.493
X160.967Y-145.193
X162.267Y-127.293
X162.467Y-145.441
X162.767Y-94.293
X163.267Y-116.993
X164.467Y-128.093
X165.163Y-154.09
X165.567Y-106.893
X166.067Y-94.193
X166.242Y-144.968
X169.267Y-94.393
X169.267Y-96.393
X171.861Y-115.587
X172.267Y-96.793
X172.867Y-94.593
X173.267Y-125.793
X174.267Y-127.393
X174.467Y-128.693
X175.067Y-145.593
X179.667Y-133.193
X181.267Y-143.593
X182.367Y-104.993
X182.367Y-122.593
X182.884Y-114.693
X186.067Y-104.093
X186.067Y-161.193
X188.467Y-151.693
X198.767Y-131.393
X199.767Y-140.893
X201.567Y-111.593
X201.667Y-121.293
X204.567Y-101.993
X214.867Y-148.593
X217.767Y-129.293
X218.967Y-138.393
X220.267Y-109.793
X220.267Y-119.893
X223.167Y-100.293
X233.067Y-146.793
X236.667Y-127.093
X238.567Y-136.543
X239.467Y-107.793
X239.767Y-115.893
X241.967Y-98.393
X252.667Y-145.143
X255.767Y-125.293
X257.967Y-115.293
X258.667Y-105.993
X261.467Y-96.093
T3
X162.167Y-164.693
X164.707Y-164.693
T2
G00X163.347Y-86.908
M15
G01X163.347Y-87.508
M16
G05
G00X163.347Y-90.838
M15
G01X163.347Y-91.938
M16
G05
G00X171.987Y-86.908
M15
G01X171.987Y-87.508
M16
G05
G00X171.987Y-90.838
M15
G01X171.987Y-91.938
M16
G05
M30
