M48
; DRILL file {KiCad 9.0.2} date 2025-09-05T14:25:22+0800
; FORMAT={-:-/ absolute / metric / decimal}
; #@! TF.CreationDate,2025-09-05T14:25:22+08:00
; #@! TF.GenerationSoftware,Kicad,Pcbnew,9.0.2
; #@! TF.FileFunction,NonPlated,1,2,NPTH
FMAT,2
METRIC
; #@! TA.AperFunction,NonPlated,NPTH,ComponentDrill
T1C0.650
; #@! TA.AperFunction,NonPlated,NPTH,ComponentDrill
T2C1.550
; #@! TA.AperFunction,NonPlated,NPTH,ComponentDrill
T3C3.000
; #@! TA.AperFunction,NonPlated,NPTH,ComponentDrill
T4C4.530
%
G90
G05
T1
X164.777Y-90.858
X170.557Y-90.858
T2
X61.573Y-91.919
X64.313Y-111.359
X67.053Y-130.799
X69.815Y-150.262
X71.677Y-92.981
X74.417Y-112.421
X77.157Y-131.861
X79.919Y-151.324
X80.523Y-93.909
X83.263Y-113.349
X86.003Y-132.789
X88.763Y-152.229
X90.627Y-94.971
X93.367Y-114.411
X96.107Y-133.851
X98.867Y-153.291
X99.463Y-95.899
X102.203Y-115.339
X104.953Y-134.779
X107.693Y-154.229
X109.567Y-96.961
X112.307Y-116.401
X115.057Y-135.841
X117.797Y-155.291
X118.413Y-97.889
X121.153Y-117.339
X123.893Y-136.789
X128.517Y-98.951
X131.257Y-118.401
X133.743Y-156.979
X133.997Y-137.851
X137.353Y-99.879
X140.103Y-119.329
X142.833Y-138.779
X143.847Y-158.041
X147.457Y-100.941
X150.207Y-120.391
X152.937Y-139.841
X182.383Y-139.841
X185.143Y-120.391
X187.863Y-100.941
X191.483Y-158.031
X192.487Y-138.779
X195.247Y-119.329
X197.967Y-99.879
X201.333Y-137.851
X201.587Y-156.969
X204.093Y-118.401
X206.813Y-98.951
X211.437Y-136.789
X214.197Y-117.339
X216.917Y-97.889
X217.543Y-155.291
X220.293Y-135.861
X223.023Y-116.421
X225.773Y-96.961
X227.647Y-154.229
X230.397Y-134.799
X233.127Y-115.359
X235.877Y-95.899
X236.468Y-153.309
X239.223Y-133.871
X241.973Y-114.431
X244.713Y-94.981
X246.572Y-152.247
X249.327Y-132.809
X252.077Y-113.369
X254.817Y-93.919
X255.415Y-151.324
X258.173Y-131.881
X260.923Y-112.441
X263.643Y-92.991
X265.519Y-150.262
X268.277Y-130.819
X271.027Y-111.379
X273.747Y-91.929
T3
X63.102Y-89.525
X65.842Y-108.965
X68.582Y-128.405
X69.682Y-87.663
X71.343Y-147.869
X72.422Y-107.103
X75.162Y-126.543
X77.924Y-146.007
X82.052Y-91.515
X84.792Y-110.955
X87.532Y-130.395
X88.632Y-89.653
X90.292Y-149.835
X91.372Y-109.093
X94.112Y-128.533
X96.872Y-147.973
X100.992Y-93.505
X103.732Y-112.945
X106.482Y-132.385
X107.572Y-91.643
X109.222Y-151.835
X110.312Y-111.083
X113.062Y-130.523
X115.802Y-149.973
X119.942Y-95.495
X122.682Y-114.945
X125.422Y-134.395
X126.522Y-93.633
X129.262Y-113.083
X132.002Y-132.533
X135.272Y-154.585
X138.882Y-97.485
X141.632Y-116.935
X141.852Y-152.723
X144.362Y-136.385
X145.462Y-95.623
X148.212Y-115.073
X150.942Y-134.523
X183.381Y-137.182
X186.141Y-117.732
X188.861Y-98.282
X189.43Y-133.992
X192.19Y-114.542
X192.481Y-155.372
X194.91Y-95.092
X198.53Y-152.182
X202.331Y-135.192
X205.091Y-115.742
X207.811Y-96.292
X208.38Y-132.002
X211.14Y-112.552
X213.86Y-93.102
X218.541Y-152.632
X221.291Y-133.202
X224.021Y-113.762
X224.59Y-149.442
X226.771Y-94.302
X227.34Y-130.012
X230.07Y-110.572
X232.82Y-91.112
X237.466Y-150.65
X240.221Y-131.212
X242.971Y-111.772
X243.515Y-147.46
X245.711Y-92.322
X246.27Y-128.022
X249.02Y-108.582
X251.76Y-89.132
X256.412Y-148.666
X259.171Y-129.222
X261.921Y-109.782
X262.462Y-145.476
X264.641Y-90.332
X265.22Y-126.032
X267.97Y-106.592
X270.69Y-87.142
T4
X66.625Y-92.45
X69.365Y-111.89
X72.105Y-131.33
X74.867Y-150.793
X85.575Y-94.44
X88.315Y-113.88
X91.055Y-133.32
X93.815Y-152.76
X104.515Y-96.43
X107.255Y-115.87
X110.005Y-135.31
X112.745Y-154.76
X123.465Y-98.42
X126.205Y-117.87
X128.945Y-137.32
X138.795Y-157.51
X142.405Y-100.41
X145.155Y-119.86
X147.885Y-139.31
X187.435Y-139.31
X190.195Y-119.86
X192.915Y-100.41
X196.535Y-157.5
X206.385Y-137.32
X209.145Y-117.87
X211.865Y-98.42
X222.595Y-154.76
X225.345Y-135.33
X228.075Y-115.89
X230.825Y-96.43
X241.52Y-152.778
X244.275Y-133.34
X247.025Y-113.9
X249.765Y-94.45
X260.467Y-150.793
X263.225Y-131.35
X265.975Y-111.91
X268.695Y-92.46
M30
